<?xml version="1.0" encoding="utf-8"?>
<!-- Generator: Adobe Illustrator 24.0.1, SVG Export Plug-In . SVG Version: 6.00 Build 0)  -->
<svg version="1.1" id="Layer_1" xmlns="http://www.w3.org/2000/svg" xmlns:xlink="http://www.w3.org/1999/xlink" x="0px" y="0px"
	 viewBox="0 0 252.6 19" style="enable-background:new 0 0 252.6 19;" xml:space="preserve">
<style type="text/css">
	.st0{fill:#3BB54A;}
	.st1{fill:#FFFFFF;}
</style>
<g>
	<path class="st1" d="M0,15.7l4.7-5C5.4,10,5.9,9.4,6.3,8.9C6.7,8.5,7,8,7.2,7.7c0.2-0.4,0.3-0.7,0.4-1C7.6,6.3,7.7,6,7.7,5.6
		c0-0.3,0-0.6-0.1-0.9C7.5,4.4,7.4,4.2,7.2,4.1C7,3.9,6.7,3.8,6.4,3.7C6.1,3.6,5.7,3.6,5.3,3.6c-0.3,0-0.7,0-1,0.1
		c-0.3,0-0.7,0.1-1,0.2C3,3.9,2.7,4,2.4,4.1C2.1,4.2,1.9,4.4,1.6,4.5L0,1.3C0.3,1.1,0.7,1,1.1,0.8C1.5,0.6,2,0.5,2.4,0.4
		c0.5-0.1,1-0.2,1.6-0.3C4.6,0,5.2,0,6,0c1,0,1.8,0.1,2.5,0.3c0.7,0.2,1.3,0.5,1.7,1c0.4,0.4,0.8,0.9,1,1.6c0.2,0.6,0.3,1.3,0.3,2.2
		c0,0.5,0,0.9-0.1,1.3c0,0.4-0.1,0.8-0.2,1.2c-0.1,0.4-0.3,0.7-0.5,1.1C10.5,9,10.2,9.4,9.9,9.8c-0.3,0.4-0.7,0.9-1.1,1.4
		c-0.4,0.5-0.9,1-1.5,1.7l-2.4,2.6h6.8v3.3H0V15.7z"/>
	<path class="st1" d="M21.2,19c-1,0-1.9-0.1-2.6-0.3c-0.7-0.2-1.3-0.5-1.8-0.8c-0.5-0.4-0.9-0.8-1.2-1.4c-0.3-0.5-0.6-1.2-0.7-1.9
		c-0.2-0.7-0.3-1.5-0.3-2.3c-0.1-0.9-0.1-1.8-0.1-2.8c0-1,0-1.9,0.1-2.7c0.1-0.8,0.2-1.6,0.3-2.3c0.2-0.7,0.4-1.3,0.7-1.9
		c0.3-0.5,0.7-1,1.2-1.4c0.5-0.4,1.1-0.7,1.8-0.9C19.3,0.1,20.2,0,21.2,0c1,0,1.9,0.1,2.6,0.3c0.7,0.2,1.3,0.5,1.8,0.9
		c0.5,0.4,0.9,0.9,1.2,1.4c0.3,0.6,0.5,1.2,0.7,1.9c0.2,0.7,0.3,1.5,0.3,2.3C27.9,7.6,28,8.5,28,9.5c0,1,0,1.9-0.1,2.8
		c-0.1,0.9-0.2,1.6-0.3,2.3c-0.2,0.7-0.4,1.3-0.7,1.9c-0.3,0.5-0.7,1-1.2,1.4c-0.5,0.4-1.1,0.6-1.8,0.8S22.2,19,21.2,19z M21.2,15.5
		c0.6,0,1.1-0.1,1.5-0.3c0.4-0.2,0.7-0.6,0.9-1.1c0.2-0.5,0.3-1.1,0.4-1.9c0.1-0.8,0.1-1.7,0.1-2.7c0-1.1,0-2-0.1-2.7
		c-0.1-0.7-0.2-1.3-0.4-1.8c-0.2-0.5-0.5-0.8-0.9-1c-0.4-0.2-0.9-0.3-1.5-0.3c-0.6,0-1.1,0.1-1.5,0.3c-0.4,0.2-0.7,0.6-0.9,1
		c-0.2,0.5-0.4,1.1-0.4,1.8c-0.1,0.7-0.1,1.6-0.1,2.7c0,1.1,0,2,0.1,2.7c0.1,0.8,0.2,1.4,0.4,1.9c0.2,0.5,0.5,0.8,0.9,1.1
		C20.1,15.4,20.6,15.5,21.2,15.5z"/>
	<path class="st1" d="M30.1,15.7l4.7-5c0.7-0.7,1.2-1.3,1.6-1.8C36.7,8.5,37,8,37.2,7.7c0.2-0.4,0.3-0.7,0.4-1
		c0.1-0.3,0.1-0.7,0.1-1.1c0-0.3,0-0.6-0.1-0.9c-0.1-0.2-0.2-0.5-0.4-0.6c-0.2-0.2-0.4-0.3-0.7-0.4c-0.3-0.1-0.7-0.1-1.1-0.1
		c-0.3,0-0.7,0-1,0.1c-0.3,0-0.7,0.1-1,0.2C33,3.9,32.7,4,32.5,4.1c-0.3,0.1-0.6,0.2-0.8,0.3L30,1.3c0.3-0.2,0.7-0.3,1.1-0.5
		c0.4-0.2,0.8-0.3,1.3-0.4c0.5-0.1,1-0.2,1.6-0.3C34.6,0,35.3,0,36,0c1,0,1.8,0.1,2.5,0.3c0.7,0.2,1.3,0.5,1.7,1
		c0.4,0.4,0.8,0.9,1,1.6c0.2,0.6,0.3,1.3,0.3,2.2c0,0.5,0,0.9-0.1,1.3c0,0.4-0.1,0.8-0.2,1.2c-0.1,0.4-0.3,0.7-0.5,1.1
		C40.5,9,40.3,9.4,40,9.8c-0.3,0.4-0.7,0.9-1.1,1.4c-0.4,0.5-0.9,1-1.5,1.7L35,15.5h6.8v3.3H30.1V15.7z"/>
	<path class="st1" d="M51.2,19c-1,0-1.9-0.1-2.6-0.3c-0.7-0.2-1.3-0.5-1.8-0.8c-0.5-0.4-0.9-0.8-1.2-1.4c-0.3-0.5-0.6-1.2-0.7-1.9
		c-0.2-0.7-0.3-1.5-0.3-2.3c-0.1-0.9-0.1-1.8-0.1-2.8c0-1,0-1.9,0.1-2.7c0.1-0.8,0.2-1.6,0.3-2.3c0.2-0.7,0.4-1.3,0.7-1.9
		c0.3-0.5,0.7-1,1.2-1.4c0.5-0.4,1.1-0.7,1.8-0.9C49.4,0.1,50.2,0,51.2,0c1,0,1.9,0.1,2.6,0.3c0.7,0.2,1.3,0.5,1.8,0.9
		c0.5,0.4,0.9,0.9,1.2,1.4c0.3,0.6,0.5,1.2,0.7,1.9c0.2,0.7,0.3,1.5,0.3,2.3C58,7.6,58,8.5,58,9.5c0,1,0,1.9-0.1,2.8
		c-0.1,0.9-0.2,1.6-0.3,2.3c-0.2,0.7-0.4,1.3-0.7,1.9c-0.3,0.5-0.7,1-1.2,1.4c-0.5,0.4-1.1,0.6-1.8,0.8S52.2,19,51.2,19z M51.2,15.5
		c0.6,0,1.1-0.1,1.5-0.3c0.4-0.2,0.7-0.6,0.9-1.1c0.2-0.5,0.3-1.1,0.4-1.9c0.1-0.8,0.1-1.7,0.1-2.7c0-1.1,0-2-0.1-2.7
		c-0.1-0.7-0.2-1.3-0.4-1.8c-0.2-0.5-0.5-0.8-0.9-1c-0.4-0.2-0.9-0.3-1.5-0.3c-0.6,0-1.1,0.1-1.5,0.3c-0.4,0.2-0.7,0.6-0.9,1
		c-0.2,0.5-0.4,1.1-0.4,1.8c-0.1,0.7-0.1,1.6-0.1,2.7c0,1.1,0,2,0.1,2.7c0.1,0.8,0.2,1.4,0.4,1.9c0.2,0.5,0.5,0.8,0.9,1.1
		C50.1,15.4,50.6,15.5,51.2,15.5z"/>
	<path class="st1" d="M65.4,0.2h11.4v3.6h-7.5v4h7.2v3.6h-7.2v7.4h-3.9V0.2z"/>
	<path class="st1" d="M86,19c-1.1,0-2.1-0.1-2.9-0.4s-1.5-0.6-2.1-1c-0.6-0.4-1-0.9-1.4-1.5c-0.4-0.6-0.6-1.2-0.8-1.9
		c-0.2-0.7-0.3-1.5-0.4-2.2c-0.1-0.8-0.1-1.6-0.1-2.4c0-0.8,0-1.7,0.1-2.5c0.1-0.8,0.2-1.5,0.4-2.3c0.2-0.7,0.5-1.3,0.8-1.9
		s0.8-1.1,1.4-1.5c0.6-0.4,1.3-0.8,2.1-1C84,0.1,84.9,0,86,0s2.1,0.1,2.9,0.4c0.8,0.2,1.5,0.6,2.1,1c0.6,0.4,1,0.9,1.4,1.5
		s0.6,1.2,0.8,1.9c0.2,0.7,0.3,1.5,0.4,2.3c0.1,0.8,0.1,1.6,0.1,2.5c0,0.8,0,1.7-0.1,2.4c-0.1,0.8-0.2,1.5-0.4,2.2
		c-0.2,0.7-0.5,1.3-0.8,1.9c-0.4,0.6-0.8,1.1-1.4,1.5c-0.6,0.4-1.3,0.8-2.1,1C88.1,18.9,87.1,19,86,19z M86,15.5
		c0.8,0,1.5-0.1,2-0.4c0.5-0.3,0.9-0.7,1.1-1.2c0.3-0.5,0.4-1.1,0.5-1.9c0.1-0.7,0.1-1.5,0.1-2.4c0-0.9,0-1.7-0.1-2.4
		c-0.1-0.7-0.2-1.3-0.5-1.8c-0.3-0.5-0.6-0.9-1.1-1.2c-0.5-0.3-1.1-0.4-2-0.4s-1.5,0.1-2,0.4c-0.5,0.3-0.9,0.7-1.1,1.2
		c-0.3,0.5-0.4,1.1-0.5,1.8c-0.1,0.7-0.1,1.5-0.1,2.4c0,0.9,0,1.7,0.1,2.4c0.1,0.7,0.2,1.3,0.5,1.9c0.3,0.5,0.6,0.9,1.1,1.2
		C84.6,15.4,85.2,15.5,86,15.5z"/>
	<path class="st1" d="M102.4,12.5h-2.5v6.2h-3.8V0.2h7.1c1.1,0,2.1,0.1,2.8,0.4c0.8,0.3,1.4,0.6,1.9,1.2c0.5,0.5,0.8,1.1,1.1,1.9
		c0.2,0.7,0.3,1.6,0.3,2.5c0,0.7-0.1,1.3-0.2,1.9c-0.1,0.6-0.3,1.2-0.5,1.7c-0.2,0.5-0.6,1-1,1.3c-0.4,0.4-0.9,0.7-1.4,0.9l3,6.8
		H105L102.4,12.5z M103.1,9.1c0.4,0,0.8,0,1.1-0.1c0.3-0.1,0.5-0.3,0.7-0.5c0.2-0.2,0.3-0.5,0.4-0.8c0.1-0.3,0.1-0.8,0.1-1.3
		c0-0.5,0-0.9-0.1-1.3c-0.1-0.3-0.2-0.6-0.4-0.8c-0.2-0.2-0.4-0.4-0.7-0.5c-0.3-0.1-0.7-0.1-1.1-0.1h-3.1v5.5H103.1z"/>
	<path class="st1" d="M111.9,0.2h5.8c1.5,0,2.7,0.2,3.7,0.5c1,0.3,1.9,0.8,2.5,1.5c0.7,0.7,1.1,1.7,1.4,2.9c0.3,1.2,0.4,2.7,0.4,4.4
		c0,1.8-0.1,3.3-0.4,4.5c-0.3,1.2-0.8,2.1-1.4,2.9s-1.5,1.2-2.5,1.5c-1,0.3-2.3,0.4-3.8,0.4h-5.8V0.2z M118.1,15.3
		c0.7,0,1.3-0.1,1.7-0.2c0.5-0.2,0.9-0.5,1.2-0.9c0.3-0.4,0.5-1,0.7-1.8s0.2-1.7,0.2-2.9c0-1.2-0.1-2.1-0.2-2.9
		c-0.1-0.7-0.4-1.3-0.7-1.7c-0.3-0.4-0.7-0.7-1.2-0.9c-0.5-0.2-1.1-0.2-1.8-0.2h-2.1v11.5H118.1z"/>
	<path class="st1" d="M132.7,0.2h11.4v3.6h-7.6v3.7h7.3V11h-7.3v4.2h7.6v3.5h-11.4V0.2z"/>
	<path class="st1" d="M153.3,19c-1.4,0-2.7-0.2-3.6-0.7c-1-0.4-1.7-1.1-2.3-1.9c-0.6-0.8-1-1.8-1.2-3c-0.2-1.2-0.3-2.5-0.3-3.9
		c0-0.9,0-1.8,0.1-2.7c0.1-0.8,0.2-1.6,0.5-2.3c0.2-0.7,0.5-1.3,0.9-1.9s0.8-1,1.4-1.4c0.6-0.4,1.3-0.7,2-0.9
		c0.8-0.2,1.7-0.3,2.8-0.3c1,0,1.9,0.1,2.8,0.3c0.8,0.2,1.6,0.6,2.3,1l-2.1,3.2c-0.4-0.2-0.8-0.4-1.3-0.6c-0.5-0.1-1.1-0.2-1.7-0.2
		c-0.6,0-1.2,0.1-1.7,0.3c-0.5,0.2-0.8,0.5-1.1,0.9s-0.5,1-0.6,1.8c-0.1,0.7-0.2,1.7-0.2,2.8c0,1.1,0.1,2.1,0.2,2.8
		c0.1,0.7,0.3,1.3,0.6,1.8c0.3,0.5,0.7,0.8,1.1,1c0.5,0.2,1,0.3,1.7,0.3c0.3,0,0.6,0,0.9-0.1c0.3,0,0.6-0.1,0.8-0.2
		c0.3-0.1,0.5-0.2,0.8-0.3c0.3-0.1,0.5-0.3,0.8-0.4l1.9,3c-0.4,0.2-0.7,0.4-1.1,0.6c-0.4,0.2-0.8,0.3-1.2,0.5
		c-0.4,0.1-0.9,0.2-1.4,0.3C154.5,18.9,153.9,19,153.3,19z"/>
	<path class="st1" d="M167.3,19c-1.1,0-2.1-0.1-2.9-0.4s-1.5-0.6-2.1-1c-0.6-0.4-1-0.9-1.4-1.5c-0.4-0.6-0.6-1.2-0.8-1.9
		c-0.2-0.7-0.3-1.5-0.4-2.2c-0.1-0.8-0.1-1.6-0.1-2.4c0-0.8,0-1.7,0.1-2.5c0.1-0.8,0.2-1.5,0.4-2.3c0.2-0.7,0.5-1.3,0.8-1.9
		s0.8-1.1,1.4-1.5c0.6-0.4,1.3-0.8,2.1-1c0.8-0.2,1.8-0.4,2.9-0.4s2.1,0.1,2.9,0.4c0.8,0.2,1.5,0.6,2.1,1c0.6,0.4,1,0.9,1.4,1.5
		s0.6,1.2,0.8,1.9c0.2,0.7,0.3,1.5,0.4,2.3c0.1,0.8,0.1,1.6,0.1,2.5c0,0.8,0,1.7-0.1,2.4c-0.1,0.8-0.2,1.5-0.4,2.2
		c-0.2,0.7-0.5,1.3-0.8,1.9c-0.4,0.6-0.8,1.1-1.4,1.5c-0.6,0.4-1.3,0.8-2.1,1C169.4,18.9,168.4,19,167.3,19z M167.3,15.5
		c0.8,0,1.5-0.1,2-0.4c0.5-0.3,0.9-0.7,1.1-1.2c0.3-0.5,0.4-1.1,0.5-1.9c0.1-0.7,0.1-1.5,0.1-2.4c0-0.9,0-1.7-0.1-2.4
		c-0.1-0.7-0.2-1.3-0.5-1.8c-0.3-0.5-0.6-0.9-1.1-1.2c-0.5-0.3-1.1-0.4-2-0.4s-1.5,0.1-2,0.4c-0.5,0.3-0.9,0.7-1.1,1.2
		c-0.3,0.5-0.4,1.1-0.5,1.8c-0.1,0.7-0.1,1.5-0.1,2.4c0,0.9,0,1.7,0.1,2.4c0.1,0.7,0.2,1.3,0.5,1.9c0.3,0.5,0.6,0.9,1.1,1.2
		C165.9,15.4,166.5,15.5,167.3,15.5z"/>
	<path class="st1" d="M182.8,19c-1.5,0-2.9-0.1-4-0.4c-1.1-0.3-2.1-0.7-3-1.3l2-3c0.3,0.2,0.6,0.3,0.9,0.5c0.3,0.2,0.7,0.3,1.1,0.4
		c0.4,0.1,0.9,0.2,1.3,0.3c0.5,0.1,1,0.1,1.5,0.1c0.5,0,1,0,1.3-0.1c0.4-0.1,0.7-0.2,0.9-0.4c0.2-0.2,0.4-0.4,0.5-0.6
		c0.1-0.2,0.1-0.5,0.1-0.8c0-0.4-0.1-0.7-0.2-1c-0.1-0.3-0.3-0.5-0.6-0.7c-0.3-0.2-0.7-0.4-1.2-0.5s-1.1-0.4-1.9-0.6
		c-0.9-0.3-1.6-0.5-2.2-0.9c-0.6-0.3-1.2-0.7-1.6-1.1c-0.4-0.4-0.7-0.9-0.9-1.5c-0.2-0.6-0.3-1.2-0.3-2c0-0.9,0.1-1.7,0.4-2.4
		c0.3-0.7,0.7-1.2,1.2-1.7c0.5-0.5,1.2-0.8,2-1C181.1,0.1,182,0,183,0c0.6,0,1.2,0,1.8,0.1c0.5,0.1,1,0.1,1.5,0.2
		c0.5,0.1,0.9,0.2,1.3,0.4c0.4,0.1,0.8,0.3,1.1,0.5L187,4.5c-0.4-0.2-1-0.4-1.6-0.6s-1.4-0.3-2.3-0.3c-0.9,0-1.6,0.1-2,0.4
		c-0.4,0.3-0.6,0.7-0.6,1.3c0,0.3,0,0.6,0.1,0.8c0.1,0.2,0.3,0.4,0.5,0.6c0.2,0.2,0.5,0.3,0.9,0.5c0.4,0.1,0.8,0.3,1.4,0.5
		c0.7,0.2,1.4,0.5,2,0.7c0.6,0.2,1.1,0.5,1.5,0.7s0.8,0.5,1.1,0.8c0.3,0.3,0.6,0.6,0.8,1c0.2,0.4,0.3,0.8,0.4,1.3
		c0.1,0.5,0.1,1,0.1,1.6c0,0.8-0.1,1.6-0.4,2.2c-0.3,0.7-0.7,1.2-1.2,1.7c-0.5,0.5-1.2,0.8-2,1.1C184.9,18.8,183.9,19,182.8,19z"/>
	<path class="st1" d="M191.7,0.2h7.1c1.1,0,2.1,0.1,2.8,0.4c0.8,0.3,1.4,0.7,1.9,1.2c0.5,0.5,0.8,1.2,1.1,1.9
		c0.2,0.7,0.3,1.6,0.3,2.5c0,0.9-0.1,1.8-0.3,2.6c-0.2,0.8-0.6,1.5-1.1,2c-0.5,0.6-1.1,1-1.9,1.3c-0.8,0.3-1.7,0.5-2.9,0.5h-3.2v6.1
		h-3.8V0.2z M198.7,9.3c0.8,0,1.5-0.2,1.8-0.7c0.4-0.4,0.6-1.2,0.6-2.2c0-0.5,0-0.9-0.1-1.3c-0.1-0.4-0.2-0.6-0.4-0.9
		c-0.2-0.2-0.4-0.4-0.8-0.5c-0.3-0.1-0.7-0.2-1.1-0.2h-3.1v5.6H198.7z"/>
	<path class="st1" d="M214.2,19c-1.1,0-2.1-0.1-2.9-0.4s-1.5-0.6-2.1-1c-0.6-0.4-1-0.9-1.4-1.5c-0.4-0.6-0.6-1.2-0.8-1.9
		c-0.2-0.7-0.3-1.5-0.4-2.2c-0.1-0.8-0.1-1.6-0.1-2.4c0-0.8,0-1.7,0.1-2.5c0.1-0.8,0.2-1.5,0.4-2.3c0.2-0.7,0.5-1.3,0.8-1.9
		s0.8-1.1,1.4-1.5c0.6-0.4,1.3-0.8,2.1-1c0.8-0.2,1.8-0.4,2.9-0.4s2.1,0.1,2.9,0.4c0.8,0.2,1.5,0.6,2.1,1c0.6,0.4,1,0.9,1.4,1.5
		s0.6,1.2,0.8,1.9c0.2,0.7,0.3,1.5,0.4,2.3c0.1,0.8,0.1,1.6,0.1,2.5c0,0.8,0,1.7-0.1,2.4c-0.1,0.8-0.2,1.5-0.4,2.2
		c-0.2,0.7-0.5,1.3-0.8,1.9c-0.4,0.6-0.8,1.1-1.4,1.5c-0.6,0.4-1.3,0.8-2.1,1C216.3,18.9,215.3,19,214.2,19z M214.2,15.5
		c0.8,0,1.5-0.1,2-0.4c0.5-0.3,0.9-0.7,1.1-1.2c0.3-0.5,0.4-1.1,0.5-1.9c0.1-0.7,0.1-1.5,0.1-2.4c0-0.9,0-1.7-0.1-2.4
		c-0.1-0.7-0.2-1.3-0.5-1.8c-0.3-0.5-0.6-0.9-1.1-1.2c-0.5-0.3-1.1-0.4-2-0.4s-1.5,0.1-2,0.4c-0.5,0.3-0.9,0.7-1.1,1.2
		c-0.3,0.5-0.4,1.1-0.5,1.8c-0.1,0.7-0.1,1.5-0.1,2.4c0,0.9,0,1.7,0.1,2.4c0.1,0.7,0.2,1.3,0.5,1.9c0.3,0.5,0.6,0.9,1.1,1.2
		C212.7,15.4,213.4,15.5,214.2,15.5z"/>
	<path class="st1" d="M230.6,12.5h-2.5v6.2h-3.8V0.2h7.1c1.1,0,2.1,0.1,2.8,0.4c0.8,0.3,1.4,0.6,1.9,1.2c0.5,0.5,0.8,1.1,1.1,1.9
		c0.2,0.7,0.3,1.6,0.3,2.5c0,0.7-0.1,1.3-0.2,1.9c-0.1,0.6-0.3,1.2-0.5,1.7c-0.2,0.5-0.6,1-1,1.3c-0.4,0.4-0.9,0.7-1.4,0.9l3,6.8
		h-4.1L230.6,12.5z M231.2,9.1c0.4,0,0.8,0,1.1-0.1c0.3-0.1,0.5-0.3,0.7-0.5c0.2-0.2,0.3-0.5,0.4-0.8c0.1-0.3,0.1-0.8,0.1-1.3
		c0-0.5,0-0.9-0.1-1.3c-0.1-0.3-0.2-0.6-0.4-0.8c-0.2-0.2-0.4-0.4-0.7-0.5c-0.3-0.1-0.7-0.1-1.1-0.1h-3.1v5.5H231.2z"/>
	<path class="st1" d="M243.6,3.8h-5V0.2h13.9v3.6h-5v15h-4V3.8z"/>
</g>
</svg>
