<?xml version="1.0" encoding="utf-8"?>
<!-- Generator: Adobe Illustrator 24.0.1, SVG Export Plug-In . SVG Version: 6.00 Build 0)  -->
<svg version="1.1" id="Layer_1" xmlns="http://www.w3.org/2000/svg" xmlns:xlink="http://www.w3.org/1999/xlink" x="0px" y="0px"
	 viewBox="0 0 126.6 35.2" style="enable-background:new 0 0 126.6 35.2;" xml:space="preserve">
<style type="text/css">
	.st0{fill:#404041;}
	.st1{fill:#FFFFFF;}
	.st2{fill:#3BB54A;}
</style>
<g>
	<g>
		<path class="st0" d="M0,0.2h5.7c0.9,0,1.6,0.1,2.3,0.3s1.1,0.5,1.5,1s0.7,0.9,0.8,1.5s0.3,1.3,0.3,2c0,0.7-0.1,1.4-0.3,2.1
			S9.9,8.2,9.5,8.7S8.6,9.5,7.9,9.8s-1.4,0.4-2.3,0.4H3.1V15H0V0.2z M5.6,7.4c0.7,0,1.2-0.2,1.5-0.5S7.5,6,7.5,5.2
			c0-0.4,0-0.7-0.1-1S7.2,3.6,7.1,3.5S6.7,3.1,6.5,3.1S5.9,2.9,5.6,2.9H3.1v4.5H5.6z"/>
		<path class="st0" d="M17.5,10h-2v5h-3.1V0.2h5.7c0.9,0,1.6,0.1,2.3,0.3s1.1,0.5,1.5,0.9s0.7,0.9,0.8,1.5s0.3,1.3,0.3,2
			c0,0.5,0,1.1-0.1,1.5s-0.2,0.9-0.4,1.3S22,8.5,21.7,8.8S21,9.4,20.5,9.6l2.4,5.4h-3.3L17.5,10z M18,7.3c0.3,0,0.6,0,0.9-0.1
			s0.4-0.2,0.6-0.4s0.3-0.4,0.3-0.7s0.1-0.6,0.1-1s0-0.7-0.1-1s-0.2-0.5-0.3-0.7s-0.3-0.3-0.6-0.4S18.4,2.9,18,2.9h-2.5v4.4H18z"/>
		<path class="st0" d="M25.3,0.2h3.1V15h-3.1V0.2z"/>
		<path class="st0" d="M36.5,15.2c-1.2,0-2.1-0.2-2.9-0.5s-1.4-0.9-1.8-1.5s-0.8-1.5-1-2.4s-0.3-2-0.3-3.1c0-0.7,0-1.5,0.1-2.1
			s0.2-1.3,0.4-1.8s0.4-1.1,0.7-1.5s0.7-0.8,1.1-1.1s1-0.6,1.6-0.7S35.9,0,36.7,0c0.8,0,1.5,0.1,2.2,0.3s1.3,0.5,1.8,0.8L39,3.7
			c-0.3-0.2-0.7-0.3-1.1-0.5s-0.9-0.2-1.4-0.2c-0.5,0-1,0.1-1.3,0.2S34.6,3.7,34.4,4S34,4.8,33.9,5.4s-0.2,1.3-0.2,2.3
			c0,0.9,0.1,1.6,0.2,2.2s0.3,1.1,0.5,1.4s0.5,0.6,0.9,0.8s0.8,0.2,1.3,0.2c0.3,0,0.5,0,0.7,0s0.4-0.1,0.7-0.1s0.4-0.1,0.6-0.2
			s0.4-0.2,0.6-0.3l1.5,2.4c-0.3,0.2-0.6,0.3-0.9,0.5s-0.6,0.3-1,0.4s-0.7,0.2-1.1,0.2S37,15.2,36.5,15.2z"/>
		<path class="st0" d="M42.6,0.2h9.1V3h-6.1v3h5.8v2.8h-5.8v3.4h6.1V15h-9.2V0.2z"/>
		<path class="st0" d="M62.3,15.2c-1.2,0-2.3-0.1-3.2-0.3s-1.7-0.6-2.4-1l1.6-2.4c0.2,0.1,0.4,0.3,0.7,0.4s0.6,0.2,0.9,0.3
			s0.7,0.2,1.1,0.2s0.8,0.1,1.2,0.1c0.4,0,0.8,0,1.1-0.1s0.5-0.2,0.7-0.3s0.3-0.3,0.4-0.5s0.1-0.4,0.1-0.7c0-0.3,0-0.6-0.1-0.8
			S64,9.8,63.8,9.6s-0.6-0.3-1-0.4s-0.9-0.3-1.5-0.5c-0.7-0.2-1.3-0.4-1.8-0.7s-0.9-0.6-1.3-0.9s-0.6-0.7-0.7-1.2s-0.2-1-0.2-1.6
			c0-0.7,0.1-1.4,0.3-1.9s0.6-1,1-1.4s1-0.6,1.6-0.8S61.6,0,62.4,0c0.5,0,1,0,1.4,0.1s0.8,0.1,1.2,0.2s0.7,0.2,1,0.3
			s0.6,0.2,0.9,0.4l-1.4,2.7c-0.4-0.2-0.8-0.3-1.3-0.5s-1.1-0.2-1.8-0.2c-0.8,0-1.3,0.1-1.6,0.3s-0.5,0.5-0.5,1c0,0.3,0,0.5,0.1,0.6
			s0.2,0.3,0.4,0.4s0.4,0.3,0.7,0.4s0.7,0.2,1.1,0.4c0.6,0.2,1.1,0.4,1.6,0.5s0.9,0.4,1.2,0.6s0.7,0.4,0.9,0.6s0.4,0.5,0.6,0.8
			s0.3,0.6,0.3,1s0.1,0.8,0.1,1.3c0,0.7-0.1,1.2-0.3,1.8s-0.5,1-0.9,1.3s-1,0.7-1.6,0.8S63.2,15.2,62.3,15.2z"/>
		<path class="st0" d="M72.2,3h-4V0.2h11.1V3h-4v12h-3.2V3z"/>
		<path class="st0" d="M83.1,0.1h3.4L91.1,15h-3.2l-0.7-2.3h-4.9L81.6,15h-3.1L83.1,0.1z M86.4,9.9l-1.7-5.6L83,9.9H86.4z"/>
		<path class="st0" d="M97.7,10h-2v5h-3.1V0.2h5.7c0.9,0,1.6,0.1,2.3,0.3s1.1,0.5,1.5,0.9s0.7,0.9,0.8,1.5s0.3,1.3,0.3,2
			c0,0.5,0,1.1-0.1,1.5s-0.2,0.9-0.4,1.3s-0.5,0.8-0.8,1.1s-0.7,0.6-1.1,0.8l2.4,5.4h-3.3L97.7,10z M98.3,7.3c0.3,0,0.6,0,0.9-0.1
			s0.4-0.2,0.6-0.4s0.3-0.4,0.3-0.7s0.1-0.6,0.1-1s0-0.7-0.1-1s-0.2-0.5-0.3-0.7s-0.3-0.3-0.6-0.4s-0.5-0.1-0.9-0.1h-2.5v4.4H98.3z"
			/>
		<path class="st0" d="M108.2,3h-4V0.2h11.1V3h-4v12h-3.2V3z"/>
		<path class="st0" d="M121.4,15.2c-1.2,0-2.3-0.1-3.2-0.3s-1.7-0.6-2.4-1l1.6-2.4c0.2,0.1,0.4,0.3,0.7,0.4s0.6,0.2,0.9,0.3
			s0.7,0.2,1.1,0.2s0.8,0.1,1.2,0.1c0.4,0,0.8,0,1.1-0.1s0.5-0.2,0.7-0.3s0.3-0.3,0.4-0.5s0.1-0.4,0.1-0.7c0-0.3,0-0.6-0.1-0.8
			s-0.3-0.4-0.5-0.5s-0.6-0.3-1-0.4s-0.9-0.3-1.5-0.5c-0.7-0.2-1.3-0.4-1.8-0.7s-0.9-0.6-1.3-0.9s-0.6-0.7-0.7-1.2s-0.2-1-0.2-1.6
			c0-0.7,0.1-1.4,0.3-1.9s0.6-1,1-1.4s1-0.6,1.6-0.8s1.4-0.3,2.2-0.3c0.5,0,1,0,1.4,0.1s0.8,0.1,1.2,0.2s0.7,0.2,1,0.3
			s0.6,0.2,0.9,0.4l-1.4,2.7c-0.4-0.2-0.8-0.3-1.3-0.5s-1.1-0.2-1.8-0.2c-0.8,0-1.3,0.1-1.6,0.3s-0.5,0.5-0.5,1c0,0.3,0,0.5,0.1,0.6
			s0.2,0.3,0.4,0.4s0.4,0.3,0.7,0.4s0.7,0.2,1.1,0.4c0.6,0.2,1.1,0.4,1.6,0.5s0.9,0.4,1.2,0.6s0.7,0.4,0.9,0.6s0.4,0.5,0.6,0.8
			s0.3,0.6,0.3,1s0.1,0.8,0.1,1.3c0,0.7-0.1,1.2-0.3,1.8s-0.5,1-0.9,1.3s-1,0.7-1.6,0.8S122.3,15.2,121.4,15.2z"/>
	</g>
	<g>
		<path class="st0" d="M4.6,20.1H8L12.6,35H9.4l-0.7-2.3H3.8L3.1,35H0L4.6,20.1z M7.9,29.9l-1.7-5.6l-1.7,5.6H7.9z"/>
		<path class="st0" d="M15.7,23h-4v-2.9h11.1V23h-4v12h-3.2V23z"/>
		<path class="st0" d="M27.6,20.4H37v0c-0.6,0.9-0.9,1.3-0.9,1.4h-2.5c0.3,0.4,0.6,0.9,0.7,1.5h2.7c0,0,0,0,0,0
			c-0.6,0.9-0.9,1.3-0.9,1.3h-1.7c0,0.5-0.3,1-0.7,1.7c-0.5,0.7-1,1.1-1.5,1.3c-0.9,0.4-1.8,0.7-2.6,0.7v0c0,0.1,0.2,0.3,0.6,0.8
			l4.6,5.6V35c0,0,0,0,0,0h-2c-3.7-4.3-5.5-6.4-5.5-6.4v-1.3l0,0c0.3,0,0.7,0.1,1.1,0.1c2.1,0,3.3-0.7,3.8-2
			c0.1-0.2,0.1-0.4,0.1-0.6h-5.6c0,0,0,0,0,0c0.6-0.9,0.9-1.3,0.9-1.3H32v0c-0.3-0.5-0.7-0.9-1.5-1.2c-0.5-0.2-1-0.3-1.4-0.3h-2.5v0
			C27.3,20.9,27.6,20.4,27.6,20.4z"/>
		<path class="st0" d="M43.1,35.2c-0.8,0-1.5-0.1-2-0.2s-1-0.3-1.4-0.5s-0.7-0.4-0.9-0.7s-0.4-0.6-0.6-0.9s-0.2-0.7-0.3-1
			s-0.1-0.7-0.1-1.1c0-0.4,0-0.9,0.1-1.3s0.1-0.8,0.3-1.1s0.3-0.6,0.6-0.9s0.6-0.5,1.1-0.6c-0.3-0.2-0.6-0.3-0.8-0.6
			s-0.4-0.5-0.5-0.7s-0.2-0.6-0.2-0.9s-0.1-0.7-0.1-1c0-0.5,0.1-0.9,0.2-1.4s0.4-0.8,0.7-1.2s0.8-0.6,1.5-0.8s1.5-0.3,2.5-0.3
			c1,0,1.8,0.1,2.5,0.3s1.1,0.5,1.5,0.8s0.6,0.7,0.7,1.2s0.2,0.9,0.2,1.4c0,0.4,0,0.7-0.1,1s-0.1,0.6-0.2,0.9s-0.3,0.5-0.5,0.7
			s-0.5,0.4-0.8,0.5c0.5,0.2,0.8,0.4,1.1,0.7s0.5,0.6,0.6,0.9s0.2,0.7,0.2,1.1s0,0.8,0,1.3c0,0.4,0,0.8-0.1,1.1s-0.1,0.7-0.3,1
			s-0.3,0.6-0.6,0.9s-0.6,0.5-1,0.7s-0.9,0.4-1.4,0.5S43.9,35.2,43.1,35.2z M43.1,32.6c0.5,0,0.8-0.1,1.1-0.2s0.5-0.3,0.7-0.5
			s0.3-0.4,0.3-0.7s0.1-0.6,0.1-0.9c0-0.3,0-0.6-0.1-0.9s-0.2-0.5-0.3-0.7s-0.4-0.3-0.7-0.4s-0.7-0.2-1.1-0.2s-0.8,0.1-1.1,0.2
			s-0.5,0.3-0.7,0.4s-0.3,0.4-0.3,0.7s-0.1,0.6-0.1,0.9c0,0.3,0,0.6,0.1,0.9s0.2,0.5,0.3,0.7s0.4,0.4,0.7,0.5S42.7,32.6,43.1,32.6z
			 M43.1,25.9c0.4,0,0.7,0,0.9-0.1s0.4-0.2,0.6-0.3s0.3-0.3,0.3-0.5s0.1-0.5,0.1-0.7s0-0.5-0.1-0.7s-0.2-0.4-0.3-0.5
			s-0.3-0.3-0.6-0.3s-0.5-0.1-0.9-0.1c-0.4,0-0.7,0-0.9,0.1s-0.4,0.2-0.6,0.3s-0.3,0.3-0.3,0.5s-0.1,0.4-0.1,0.7s0,0.5,0.1,0.7
			s0.2,0.4,0.3,0.5s0.3,0.2,0.6,0.3S42.8,25.9,43.1,25.9z"/>
		<path class="st0" d="M50.1,31.4h3.4V35h-3.4V31.4z"/>
		<path class="st0" d="M60.9,35.2c-0.8,0-1.5-0.1-2.1-0.2s-1.1-0.4-1.5-0.7s-0.7-0.7-1-1.1s-0.4-0.9-0.6-1.5s-0.2-1.2-0.3-1.9
			s-0.1-1.4-0.1-2.2c0-0.8,0-1.5,0.1-2.2s0.1-1.3,0.3-1.9s0.3-1.1,0.6-1.5s0.6-0.8,1-1.1s0.9-0.5,1.5-0.7s1.3-0.2,2.1-0.2
			c0.8,0,1.5,0.1,2.1,0.2s1.1,0.4,1.5,0.7s0.7,0.7,1,1.1s0.4,0.9,0.6,1.5s0.2,1.2,0.3,1.9s0.1,1.4,0.1,2.2c0,0.8,0,1.6-0.1,2.2
			s-0.1,1.3-0.3,1.9s-0.3,1.1-0.6,1.5s-0.6,0.8-1,1.1S63.5,34.8,63,35S61.7,35.2,60.9,35.2z M60.9,32.4c0.5,0,0.9-0.1,1.2-0.3
			s0.5-0.5,0.7-0.8s0.3-0.9,0.3-1.5s0.1-1.3,0.1-2.2c0-0.8,0-1.6-0.1-2.2s-0.2-1.1-0.3-1.5s-0.4-0.6-0.7-0.8s-0.7-0.3-1.2-0.3
			c-0.5,0-0.9,0.1-1.2,0.3S59.2,23.6,59,24s-0.3,0.9-0.3,1.5s-0.1,1.3-0.1,2.2c0,0.9,0,1.6,0.1,2.2s0.2,1.1,0.3,1.5s0.4,0.7,0.7,0.8
			S60.4,32.4,60.9,32.4z"/>
		<path class="st0" d="M68,29.7l5.2-9.6h3.2l-5.1,9.4h3l0.6-4.1h2.2v4.1h1.8v2.5h-1.8V35h-2.8v-2.9H68V29.7z"/>
		<path class="st0" d="M80.7,20.2h3.1v12h5.8V35h-8.9V20.2z"/>
		<path class="st0" d="M92.5,23.6l-1.3,1l-0.8-1.3l1.6-0.8l-1.6-0.8l0.8-1.3l1.3,1l-0.2-1.8h1.4l-0.2,1.8l1.3-1.1l0.8,1.2l-1.6,0.8
			l1.6,0.8l-0.8,1.2l-1.3-1l0.2,1.8h-1.4L92.5,23.6z"/>
	</g>
</g>
</svg>
