<?xml version="1.0" encoding="utf-8"?>
<!-- Generator: Adobe Illustrator 24.0.1, SVG Export Plug-In . SVG Version: 6.00 Build 0)  -->
<svg version="1.1" id="Layer_1" xmlns="http://www.w3.org/2000/svg" xmlns:xlink="http://www.w3.org/1999/xlink" x="0px" y="0px"
	 viewBox="0 0 198.2 82.4" style="enable-background:new 0 0 198.2 82.4;" xml:space="preserve">
<style type="text/css">
	.st0{fill:#FFFFFF;}
	.st1{fill:#3BB54A;}
	.st2{fill:#404041;}
</style>
<g>
	<g>
		<path class="st1" d="M117.7,0h14.6l17.6,46.1L167.4,0h14.4l-25.1,63.4h-14.1L117.7,0z"/>
		<path class="st1" d="M184,0h13.9v63H184V0z"/>
	</g>
	<path class="st2" d="M0,1.9h28.3c4.1,0,7.5,0.3,10.5,0.9c2.9,0.6,5.3,1.5,7.2,2.8c1.9,1.3,3.3,2.9,4.2,4.9c0.9,2,1.3,4.4,1.3,7.2
		c0,3.6-0.7,6.5-2,8.7c-1.3,2.2-3.4,3.8-6.2,4.8c1.8,0.4,3.3,1,4.6,1.9c1.2,0.8,2.3,1.8,3,3.1c0.8,1.2,1.3,2.7,1.7,4.3
		c0.3,1.7,0.5,3.6,0.5,5.8c0,3.3-0.5,6.1-1.6,8.2c-1.1,2.2-2.6,3.9-4.8,5.2c-2.1,1.3-4.7,2.2-7.8,2.7S32.3,63,28.2,63H0V1.9z
		 M13.3,37.6l0,14.1h16.5c1.7,0,3.2-0.1,4.4-0.4c1.2-0.3,2.2-0.7,3-1.2c0.8-0.5,1.4-1.3,1.7-2.1c0.4-0.9,0.5-1.9,0.5-3.2
		c0-1.2-0.2-2.3-0.5-3.2c-0.4-0.9-0.9-1.6-1.7-2.1c-0.8-0.5-1.8-0.9-3-1.2C33,38.1,31.5,38,29.8,38C19.1,37.5,13.3,37.6,13.3,37.6z"
		/>
	<path class="st2" d="M81.8,63.9c-6.1,0-11.6-0.7-16.5-2.1c-4.9-1.4-9.1-3.4-12.6-5.9l6.8-9.7c3.3,2.2,6.8,3.8,10.5,4.9
		c3.7,1.1,7.5,1.6,11.5,1.6c3,0,5.4-0.1,7.2-0.4c1.9-0.3,3.3-0.7,4.3-1.3c1-0.6,1.7-1.4,2.1-2.3c0.3-0.9,0.5-2,0.5-3.3
		c0-1.3-0.3-2.3-0.9-3.1c-0.6-0.8-1.6-1.5-2.8-2s-2.7-1-4.6-1.3c-1.8-0.3-3.9-0.7-6.2-1c-4.1-0.6-7.7-1.2-10.8-2
		c-3.1-0.8-5.7-1.8-7.8-3.2c-2.1-1.3-3.7-3.1-4.7-5.2c-1.1-2.1-1.6-4.9-1.6-8.2c0-3.4,0.5-6.3,1.6-8.6c1-2.3,2.6-4.3,4.7-5.7
		c2.1-1.5,4.8-2.5,8-3.2s6.9-1,11.3-1c3.1,0,5.9,0.2,8.5,0.5C92.7,1.8,95,2.2,97,2.7s3.8,1.2,5.4,1.9s2.9,1.5,4.1,2.3l-7.2,10.5
		c-1-0.6-2.1-1.2-3.5-1.8c-1.3-0.6-2.8-1.1-4.3-1.5c-1.5-0.4-3.2-0.8-4.9-1c-1.7-0.3-3.4-0.4-5-0.4c-2.4,0-4.4,0.1-5.9,0.4
		c-1.5,0.2-2.8,0.6-3.6,1.1c-0.9,0.5-1.5,1.2-1.8,2c-0.3,0.8-0.5,1.8-0.5,2.9c0,1.2,0.3,2.2,0.9,3c0.6,0.8,1.6,1.4,2.8,2
		c1.2,0.5,2.8,1,4.6,1.3c1.8,0.3,4,0.7,6.4,1c2.4,0.3,4.7,0.7,6.9,1.1c2.2,0.4,4.1,0.9,6,1.5s3.4,1.3,4.9,2.2
		c1.4,0.8,2.7,1.9,3.6,3.1c1,1.2,1.8,2.7,2.3,4.4s0.8,3.7,0.8,6c0,3.1-0.5,5.8-1.4,8.2c-0.9,2.4-2.4,4.4-4.6,6.1s-4.9,2.9-8.4,3.7
		C91.2,63.5,86.9,63.9,81.8,63.9z"/>
	<path class="st1" d="M9.7,5.1c0,0-2.8,26,16,26c15.8,0,16-21.3,0.8-16.7C18.3,17,12,10.8,9.7,5.1z"/>
	<g>
		<path class="st2" d="M7.9,82.4c-1.4,0-2.5-0.2-3.5-0.5c-0.9-0.3-1.7-0.8-2.3-1.4c-0.6-0.6-1-1.4-1.2-2.3c-0.2-0.9-0.4-1.9-0.4-3
			c0-1.3,0.2-2.4,0.5-3.3s0.8-1.7,1.5-2.2c0.7-0.6,1.4-1,2.4-1.3s2-0.4,3.2-0.4c0.7,0,1.3,0,1.9,0.1c0.6,0.1,1.1,0.2,1.5,0.4
			c0.5,0.2,0.9,0.4,1.3,0.7c0.4,0.3,0.7,0.6,1.1,0.9l-2.7,2.7c-0.2-0.2-0.4-0.4-0.6-0.5s-0.4-0.3-0.7-0.4c-0.2-0.1-0.5-0.2-0.8-0.3
			c-0.3-0.1-0.6-0.1-1-0.1c-0.7,0-1.2,0.1-1.7,0.2c-0.5,0.2-0.8,0.4-1.1,0.7c-0.3,0.3-0.5,0.7-0.6,1.1c-0.1,0.5-0.2,1-0.2,1.6
			c0,0.6,0.1,1.1,0.2,1.5s0.3,0.8,0.6,1.2s0.6,0.6,1.1,0.7c0.5,0.2,1.1,0.3,1.8,0.3c0.4,0,0.8,0,1.1-0.1c0.3-0.1,0.6-0.2,0.9-0.3
			c0.3-0.1,0.5-0.3,0.7-0.4c0.2-0.2,0.4-0.4,0.7-0.6L14,80c-0.3,0.3-0.6,0.6-1,0.9c-0.4,0.3-0.8,0.5-1.3,0.8c-0.5,0.2-1,0.4-1.7,0.5
			C9.4,82.3,8.7,82.4,7.9,82.4z"/>
		<path class="st2" d="M31.1,82.4c-1.1,0-2.1-0.1-3-0.4s-1.7-0.7-2.4-1.2s-1.2-1.3-1.6-2.2c-0.4-0.9-0.6-2.1-0.6-3.4
			c0-1.3,0.2-2.5,0.6-3.4s0.9-1.7,1.6-2.2s1.5-1,2.4-1.2c0.9-0.2,1.9-0.4,3-0.4c1.1,0,2.1,0.1,3,0.4c0.9,0.2,1.7,0.6,2.4,1.2
			c0.7,0.6,1.2,1.3,1.6,2.2c0.4,0.9,0.6,2,0.6,3.4c0,1.3-0.2,2.5-0.6,3.4c-0.4,0.9-0.9,1.7-1.6,2.2c-0.7,0.6-1.5,1-2.4,1.2
			C33.2,82.3,32.2,82.4,31.1,82.4z M31.1,78.9c0.7,0,1.3-0.1,1.8-0.3c0.5-0.2,0.8-0.4,1.1-0.8c0.3-0.3,0.5-0.7,0.6-1.2
			s0.2-1,0.2-1.5c0-0.5-0.1-1-0.2-1.5c-0.1-0.5-0.3-0.8-0.6-1.2c-0.3-0.3-0.6-0.6-1.1-0.8c-0.5-0.2-1.1-0.3-1.8-0.3
			c-0.7,0-1.3,0.1-1.8,0.3c-0.5,0.2-0.8,0.4-1.1,0.8c-0.3,0.3-0.5,0.7-0.6,1.2c-0.1,0.4-0.2,0.9-0.2,1.5c0,0.5,0.1,1,0.2,1.5
			c0.1,0.5,0.3,0.8,0.6,1.2c0.3,0.3,0.6,0.6,1.1,0.8C29.8,78.9,30.4,78.9,31.1,78.9z"/>
		<path class="st2" d="M49.3,68.2h5.1l3.1,8.3l3.1-8.3h5.1v13.9H62v-8.1l-3.1,8.1h-2.9l-3.1-8v8h-3.5V68.2z"/>
		<path class="st2" d="M77.1,68.2h7c1.2,0,2.2,0.1,3,0.4s1.4,0.6,1.8,1c0.4,0.4,0.8,1,0.9,1.6c0.2,0.6,0.3,1.3,0.3,2
			c0,0.5,0,0.9-0.1,1.4s-0.2,0.9-0.4,1.2c-0.2,0.4-0.4,0.7-0.7,1.1c-0.3,0.3-0.7,0.6-1.1,0.8c-0.5,0.2-1,0.4-1.6,0.5
			c-0.6,0.1-1.4,0.2-2.2,0.2h-3v3.8h-3.8V68.2z M84.1,75.1c0.4,0,0.7,0,1-0.1c0.3-0.1,0.5-0.2,0.7-0.3c0.2-0.1,0.3-0.3,0.4-0.6
			s0.1-0.5,0.1-0.8c0-0.3,0-0.6-0.1-0.9s-0.2-0.4-0.4-0.6c-0.2-0.1-0.4-0.2-0.7-0.3c-0.3-0.1-0.6-0.1-1-0.1h-3.1v3.6H84.1z"/>
		<path class="st2" d="M100.8,68.2h3.9v10.6h6.6v3.4h-10.5V68.2z"/>
		<path class="st2" d="M121.7,68.2h3.9v13.9h-3.9V68.2z"/>
		<path class="st2" d="M141.6,68.1h4l5.6,14h-4l-0.7-1.8h-5.9l-0.7,1.8h-3.8L141.6,68.1z M145.3,77.1l-1.7-4.4l-1.7,4.4H145.3z"/>
		<path class="st2" d="M161.5,68.2h4.2l5.4,7.4v-7.4h3.7v13.9h-3.6l-6-8.1v8.1h-3.7V68.2z"/>
		<path class="st2" d="M189.7,71.7H185v-3.5h13.2v3.5h-4.6v10.4h-3.9V71.7z"/>
	</g>
</g>
</svg>
