<?xml version="1.0" encoding="utf-8"?>
<!-- Generator: Adobe Illustrator 24.0.1, SVG Export Plug-In . SVG Version: 6.00 Build 0)  -->
<svg version="1.1" id="Layer_1" xmlns="http://www.w3.org/2000/svg" xmlns:xlink="http://www.w3.org/1999/xlink" x="0px" y="0px"
	 viewBox="0 0 169.2 17.2" style="enable-background:new 0 0 169.2 17.2;" xml:space="preserve">
<style type="text/css">
	.st0{fill:#404041;}
	.st1{fill:#FFFFFF;}
	.st2{fill:#3BB54A;}
</style>
<g>
	<path class="st0" d="M0,0.2h3.6l2.2,10.2L8.2,0.2h3.2l2.5,10.2L16,0.2h3.4l-3.8,17h-3.5l-2.5-10l-2.5,10H3.8L0,0.2z"/>
	<path class="st0" d="M21.7,0.2h3.6V17h-3.6V0.2z"/>
	<path class="st0" d="M31.8,3.5h-4.5V0.2h12.7v3.3h-4.5V17h-3.6V3.5z"/>
	<path class="st0" d="M41.7,0.2h3.6v6.4h5.6V0.2h3.6V17h-3.6v-6.9h-5.6V17h-3.6V0.2z"/>
	<path class="st0" d="M67.3,17.2c-0.9,0-1.7-0.1-2.4-0.2s-1.2-0.4-1.7-0.7c-0.5-0.3-0.8-0.7-1.1-1.1s-0.5-0.9-0.6-1.5
		c-0.2-0.6-0.3-1.2-0.3-1.8c0-0.7-0.1-1.4-0.1-2.2c0-1.1,0-2,0.1-2.9c0.1-0.9,0.2-1.7,0.4-2.4c0.2-0.7,0.4-1.3,0.8-1.9
		c0.3-0.5,0.8-1,1.4-1.3c0.6-0.4,1.3-0.6,2.2-0.8c0.9-0.2,1.9-0.3,3.1-0.3h2v3.1h-2.2c-0.9,0-1.6,0.1-2.1,0.2s-0.9,0.4-1.2,0.7
		c-0.3,0.3-0.5,0.6-0.6,1c-0.1,0.4-0.2,0.9-0.2,1.4C65,6.3,65.4,6,66,5.8c0.6-0.2,1.4-0.3,2.5-0.3c1,0,1.8,0.1,2.4,0.4
		s1.1,0.7,1.4,1.2c0.3,0.5,0.6,1.1,0.7,1.8s0.2,1.5,0.2,2.3c0,1-0.1,1.9-0.3,2.7s-0.5,1.4-1,1.9c-0.5,0.5-1.1,0.9-1.8,1.1
		C69.4,17.1,68.5,17.2,67.3,17.2z M67.4,14.2c0.5,0,0.9-0.1,1.2-0.2s0.5-0.3,0.7-0.6c0.2-0.2,0.3-0.6,0.4-0.9
		c0.1-0.4,0.1-0.8,0.1-1.3c0-0.5,0-0.9-0.1-1.3c-0.1-0.4-0.2-0.7-0.4-0.9c-0.2-0.2-0.4-0.4-0.7-0.5c-0.3-0.1-0.7-0.2-1.1-0.2
		c-0.4,0-0.8,0-1.1,0.1C66,8.6,65.7,8.7,65.5,9c-0.2,0.2-0.4,0.5-0.5,0.9c-0.1,0.4-0.2,0.8-0.2,1.3c0,0.5,0,1,0.1,1.4
		c0.1,0.4,0.2,0.7,0.4,1s0.5,0.4,0.8,0.6S66.8,14.2,67.4,14.2z"/>
	<path class="st0" d="M83.9,0.1h3.8l5.2,17h-3.7l-0.8-2.6h-5.6L82.2,17h-3.6L83.9,0.1z M87.6,11.3l-1.9-6.4l-2,6.4H87.6z"/>
	<path class="st0" d="M95,0.2h3.6V17H95V0.2z"/>
	<path class="st0" d="M107.3,11.4h-2.2V17h-3.5V0.2h6.4c1,0,1.9,0.1,2.6,0.4c0.7,0.2,1.3,0.6,1.7,1c0.4,0.5,0.8,1,1,1.7
		c0.2,0.7,0.3,1.4,0.3,2.3c0,0.6-0.1,1.2-0.2,1.8s-0.3,1.1-0.5,1.5c-0.2,0.5-0.5,0.9-0.9,1.2c-0.4,0.4-0.8,0.6-1.3,0.9l2.7,6.1h-3.7
		L107.3,11.4z M107.9,8.3c0.4,0,0.7,0,1-0.1c0.3-0.1,0.5-0.2,0.7-0.4c0.2-0.2,0.3-0.5,0.4-0.8s0.1-0.7,0.1-1.1c0-0.5,0-0.8-0.1-1.2
		c-0.1-0.3-0.2-0.6-0.4-0.8s-0.4-0.3-0.7-0.4c-0.3-0.1-0.6-0.1-1-0.1h-2.8v5H107.9z"/>
	<path class="st0" d="M116,0.2h6.2c1,0,1.8,0.1,2.5,0.3c0.7,0.2,1.2,0.5,1.7,0.8c0.4,0.4,0.7,0.8,0.9,1.4c0.2,0.5,0.3,1.1,0.3,1.8
		c0,1-0.2,1.8-0.5,2.4c-0.4,0.6-0.8,1-1.4,1.3c0.4,0.1,0.7,0.3,1,0.5c0.3,0.2,0.5,0.5,0.7,0.8c0.2,0.3,0.3,0.7,0.4,1.2
		c0.1,0.5,0.1,1,0.1,1.6c0,0.8-0.1,1.5-0.4,2.1s-0.6,1.1-1.1,1.5c-0.5,0.4-1.1,0.7-1.8,0.8s-1.5,0.3-2.4,0.3H116V0.2z M122.1,7
		c0.7,0,1.2-0.2,1.5-0.5c0.3-0.3,0.5-0.8,0.5-1.5s-0.1-1.1-0.4-1.4c-0.3-0.3-0.8-0.4-1.5-0.4h-2.6V7H122.1z M122.3,14.1
		c0.3,0,0.6,0,0.9-0.1c0.3-0.1,0.5-0.2,0.6-0.3s0.3-0.4,0.4-0.6c0.1-0.3,0.1-0.6,0.1-0.9s0-0.7-0.1-0.9s-0.2-0.4-0.4-0.6
		s-0.4-0.3-0.6-0.3c-0.3-0.1-0.6-0.1-0.9-0.1h-2.7v4H122.3z"/>
	<path class="st0" d="M134.2,0.1h3.8l5.2,17h-3.7l-0.8-2.6h-5.6l-0.8,2.6h-3.6L134.2,0.1z M137.9,11.3L136,4.9l-2,6.4H137.9z"/>
	<path class="st0" d="M150.3,17.2c-1.3,0-2.4-0.2-3.2-0.6c-0.8-0.4-1.5-1-2-1.7c-0.5-0.7-0.8-1.6-1-2.7c-0.2-1.1-0.3-2.3-0.3-3.6
		c0-1.5,0.1-2.8,0.4-3.9c0.2-1.1,0.6-2,1.2-2.7c0.6-0.7,1.3-1.2,2.2-1.6c0.9-0.3,2-0.5,3.4-0.5c1,0,2,0.1,2.8,0.4
		c0.8,0.2,1.5,0.6,2.1,0.9l-1.9,3c-0.2-0.1-0.4-0.2-0.6-0.3c-0.2-0.1-0.5-0.2-0.7-0.3c-0.3-0.1-0.5-0.1-0.8-0.2
		c-0.3,0-0.6-0.1-1-0.1c-0.6,0-1,0.1-1.5,0.2c-0.4,0.1-0.8,0.4-1.1,0.8c-0.3,0.4-0.5,0.9-0.7,1.6c-0.2,0.7-0.2,1.6-0.2,2.7
		c0,1.1,0.1,2,0.2,2.7c0.1,0.7,0.3,1.3,0.6,1.7c0.3,0.4,0.6,0.7,1,0.9s0.9,0.3,1.6,0.3c0.5,0,1-0.1,1.3-0.2c0.3-0.1,0.6-0.4,0.8-0.7
		c0.2-0.3,0.3-0.7,0.4-1.1c0.1-0.5,0.1-1,0.1-1.7v-0.4h-3.3V7h6.7v2.8c0,1.4-0.1,2.5-0.3,3.4c-0.2,0.9-0.5,1.7-1,2.3
		c-0.5,0.6-1.1,1-1.9,1.3S151.5,17.2,150.3,17.2z"/>
	<path class="st0" d="M163.3,17.2c-1.4,0-2.6-0.1-3.7-0.4c-1-0.3-1.9-0.6-2.7-1.1l1.8-2.7c0.2,0.1,0.5,0.3,0.8,0.4
		c0.3,0.1,0.7,0.3,1,0.4c0.4,0.1,0.8,0.2,1.2,0.3c0.4,0.1,0.9,0.1,1.4,0.1c0.5,0,0.9,0,1.2-0.1c0.3-0.1,0.6-0.2,0.8-0.3
		c0.2-0.1,0.3-0.3,0.4-0.5s0.1-0.5,0.1-0.7c0-0.4-0.1-0.7-0.2-0.9c-0.1-0.2-0.3-0.4-0.6-0.6s-0.6-0.3-1.1-0.5
		c-0.5-0.2-1-0.3-1.7-0.6c-0.8-0.2-1.5-0.5-2-0.8c-0.6-0.3-1-0.6-1.4-1c-0.4-0.4-0.7-0.8-0.8-1.4c-0.2-0.5-0.3-1.1-0.3-1.8
		c0-0.8,0.1-1.5,0.4-2.2c0.3-0.6,0.6-1.1,1.1-1.5c0.5-0.4,1.1-0.7,1.8-0.9c0.7-0.2,1.5-0.3,2.5-0.3c0.6,0,1.1,0,1.6,0.1
		s0.9,0.1,1.4,0.2c0.4,0.1,0.8,0.2,1.2,0.3c0.4,0.1,0.7,0.3,1,0.4l-1.5,3.1c-0.4-0.2-0.9-0.4-1.5-0.5s-1.3-0.2-2.1-0.2
		c-0.9,0-1.5,0.1-1.9,0.3s-0.6,0.6-0.6,1.1c0,0.3,0,0.5,0.1,0.7s0.2,0.4,0.4,0.5c0.2,0.1,0.5,0.3,0.8,0.4c0.3,0.1,0.8,0.3,1.3,0.4
		c0.7,0.2,1.3,0.4,1.8,0.6c0.5,0.2,1,0.4,1.4,0.6c0.4,0.2,0.7,0.5,1,0.7s0.5,0.6,0.7,0.9s0.3,0.7,0.4,1.1c0.1,0.4,0.1,0.9,0.1,1.5
		c0,0.7-0.1,1.4-0.3,2c-0.2,0.6-0.6,1.1-1.1,1.5s-1.1,0.7-1.8,1C165.2,17.1,164.3,17.2,163.3,17.2z"/>
</g>
</svg>
