<?xml version="1.0" encoding="utf-8"?>
<!-- Generator: Adobe Illustrator 24.0.1, SVG Export Plug-In . SVG Version: 6.00 Build 0)  -->
<svg version="1.1" id="Layer_1" xmlns="http://www.w3.org/2000/svg" xmlns:xlink="http://www.w3.org/1999/xlink" x="0px" y="0px"
	 viewBox="0 0 80.8 33.6" style="enable-background:new 0 0 80.8 33.6;" xml:space="preserve">
<style type="text/css">
	.st0{fill:#3BB54A;}
	.st1{fill:#FFFFFF;}
</style>
<g>
	<g>
		<path class="st0" d="M48,0h6l7.2,18.8L68.2,0h5.9L63.9,25.9h-5.8L48,0z"/>
		<path class="st0" d="M75,0h5.7v25.7H75V0z"/>
	</g>
	<path class="st1" d="M0,0.8h11.6c1.7,0,3.1,0.1,4.3,0.4C17,1.4,18,1.7,18.8,2.3c0.8,0.5,1.3,1.2,1.7,2C20.8,5.1,21,6.1,21,7.2
		c0,1.5-0.3,2.6-0.8,3.5c-0.5,0.9-1.4,1.6-2.5,2c0.7,0.2,1.4,0.4,1.9,0.8c0.5,0.3,0.9,0.7,1.2,1.2c0.3,0.5,0.5,1.1,0.7,1.8
		c0.1,0.7,0.2,1.5,0.2,2.3c0,1.4-0.2,2.5-0.6,3.4c-0.4,0.9-1.1,1.6-1.9,2.1c-0.9,0.5-1.9,0.9-3.2,1.1s-2.7,0.3-4.4,0.3H0V0.8z
		 M5.4,15.3l0,5.8h6.7c0.7,0,1.3-0.1,1.8-0.2c0.5-0.1,0.9-0.3,1.2-0.5c0.3-0.2,0.6-0.5,0.7-0.9c0.1-0.4,0.2-0.8,0.2-1.3
		c0-0.5-0.1-0.9-0.2-1.3c-0.1-0.4-0.4-0.6-0.7-0.9c-0.3-0.2-0.7-0.4-1.2-0.5c-0.5-0.1-1.1-0.1-1.8-0.1C7.8,15.3,5.4,15.3,5.4,15.3z"
		/>
	<path class="st1" d="M33.3,26.1c-2.5,0-4.7-0.3-6.7-0.8c-2-0.6-3.7-1.4-5.1-2.4l2.8-4c1.3,0.9,2.8,1.6,4.3,2
		c1.5,0.4,3.1,0.7,4.7,0.7c1.2,0,2.2-0.1,3-0.2c0.8-0.1,1.3-0.3,1.8-0.5c0.4-0.2,0.7-0.6,0.8-0.9c0.1-0.4,0.2-0.8,0.2-1.4
		c0-0.5-0.1-0.9-0.4-1.3c-0.3-0.3-0.6-0.6-1.1-0.8c-0.5-0.2-1.1-0.4-1.9-0.5c-0.7-0.1-1.6-0.3-2.5-0.4c-1.7-0.2-3.1-0.5-4.4-0.8
		c-1.3-0.3-2.3-0.7-3.2-1.3c-0.8-0.5-1.5-1.3-1.9-2.1c-0.4-0.9-0.6-2-0.6-3.3c0-1.4,0.2-2.6,0.6-3.5c0.4-1,1.1-1.7,1.9-2.3
		c0.9-0.6,1.9-1,3.2-1.3c1.3-0.3,2.8-0.4,4.6-0.4c1.3,0,2.4,0.1,3.4,0.2c1,0.1,2,0.3,2.8,0.5c0.8,0.2,1.6,0.5,2.2,0.8
		c0.6,0.3,1.2,0.6,1.7,0.9l-3,4.3C40,6.8,39.6,6.6,39,6.3c-0.5-0.2-1.1-0.4-1.8-0.6c-0.6-0.2-1.3-0.3-2-0.4c-0.7-0.1-1.4-0.2-2-0.2
		c-1,0-1.8,0-2.4,0.1c-0.6,0.1-1.1,0.3-1.5,0.5C29,6,28.7,6.3,28.6,6.6c-0.1,0.3-0.2,0.7-0.2,1.2c0,0.5,0.1,0.9,0.4,1.2
		c0.3,0.3,0.6,0.6,1.1,0.8c0.5,0.2,1.1,0.4,1.9,0.5c0.7,0.1,1.6,0.3,2.6,0.4c1,0.1,1.9,0.3,2.8,0.5c0.9,0.2,1.7,0.4,2.4,0.6
		c0.7,0.2,1.4,0.5,2,0.9c0.6,0.3,1.1,0.8,1.5,1.3c0.4,0.5,0.7,1.1,0.9,1.8c0.2,0.7,0.3,1.5,0.3,2.4c0,1.3-0.2,2.4-0.6,3.4
		c-0.4,1-1,1.8-1.9,2.5c-0.9,0.7-2,1.2-3.4,1.5C37.2,25.9,35.4,26.1,33.3,26.1z"/>
	<path class="st0" d="M4,2.1c0,0-1.2,10.6,6.5,10.6c6.5,0,6.5-8.7,0.3-6.8C7.4,6.9,4.9,4.4,4,2.1z"/>
	<g>
		<g>
			<path class="st1" d="M3.2,33.6c-0.6,0-1-0.1-1.4-0.2c-0.4-0.1-0.7-0.3-0.9-0.6c-0.2-0.3-0.4-0.6-0.5-0.9
				c-0.1-0.4-0.2-0.8-0.2-1.2c0-0.5,0.1-1,0.2-1.3s0.3-0.7,0.6-0.9c0.3-0.2,0.6-0.4,1-0.5c0.4-0.1,0.8-0.2,1.3-0.2
				c0.3,0,0.5,0,0.8,0.1c0.2,0,0.4,0.1,0.6,0.2c0.2,0.1,0.4,0.2,0.5,0.3c0.2,0.1,0.3,0.2,0.4,0.4l-1.1,1.1c-0.1-0.1-0.2-0.2-0.2-0.2
				c-0.1-0.1-0.2-0.1-0.3-0.2c-0.1,0-0.2-0.1-0.3-0.1c-0.1,0-0.3,0-0.4,0c-0.3,0-0.5,0-0.7,0.1c-0.2,0.1-0.3,0.2-0.5,0.3
				C2,29.7,2,29.8,1.9,30c-0.1,0.2-0.1,0.4-0.1,0.6c0,0.2,0,0.4,0.1,0.6s0.1,0.3,0.2,0.5C2.2,31.9,2.4,32,2.6,32
				c0.2,0.1,0.4,0.1,0.7,0.1c0.2,0,0.3,0,0.4,0C3.9,32.1,4,32,4.1,32c0.1,0,0.2-0.1,0.3-0.2c0.1-0.1,0.2-0.1,0.3-0.2l1,1
				c-0.1,0.1-0.3,0.2-0.4,0.4c-0.1,0.1-0.3,0.2-0.5,0.3c-0.2,0.1-0.4,0.2-0.7,0.2C3.8,33.5,3.5,33.6,3.2,33.6z"/>
			<path class="st1" d="M12.7,33.6c-0.5,0-0.9,0-1.2-0.1s-0.7-0.3-1-0.5S10,32.4,9.8,32c-0.2-0.4-0.2-0.8-0.2-1.4
				c0-0.5,0.1-1,0.2-1.4c0.2-0.4,0.4-0.7,0.6-0.9c0.3-0.2,0.6-0.4,1-0.5c0.4-0.1,0.8-0.1,1.2-0.1c0.4,0,0.9,0.1,1.2,0.1
				c0.4,0.1,0.7,0.3,1,0.5c0.3,0.2,0.5,0.5,0.6,0.9c0.2,0.4,0.2,0.8,0.2,1.4c0,0.5-0.1,1-0.2,1.4c-0.2,0.4-0.4,0.7-0.6,0.9
				c-0.3,0.2-0.6,0.4-1,0.5C13.5,33.5,13.1,33.6,12.7,33.6z M12.7,32.2c0.3,0,0.5,0,0.7-0.1c0.2-0.1,0.3-0.2,0.5-0.3
				c0.1-0.1,0.2-0.3,0.2-0.5s0.1-0.4,0.1-0.6c0-0.2,0-0.4-0.1-0.6c0-0.2-0.1-0.3-0.2-0.5c-0.1-0.1-0.3-0.2-0.5-0.3
				c-0.2-0.1-0.4-0.1-0.7-0.1c-0.3,0-0.5,0-0.7,0.1c-0.2,0.1-0.3,0.2-0.5,0.3c-0.1,0.1-0.2,0.3-0.2,0.5c0,0.2-0.1,0.4-0.1,0.6
				c0,0.2,0,0.4,0.1,0.6c0,0.2,0.1,0.3,0.2,0.5c0.1,0.1,0.3,0.2,0.5,0.3C12.1,32.1,12.4,32.2,12.7,32.2z"/>
			<path class="st1" d="M20.1,27.8h2.1l1.3,3.4l1.3-3.4h2.1v5.7h-1.5v-3.3L24,33.5h-1.2l-1.3-3.3v3.3h-1.4V27.8z"/>
			<path class="st1" d="M31.4,27.8h2.9c0.5,0,0.9,0,1.2,0.1c0.3,0.1,0.6,0.2,0.7,0.4c0.2,0.2,0.3,0.4,0.4,0.6
				c0.1,0.2,0.1,0.5,0.1,0.8c0,0.2,0,0.4,0,0.6c0,0.2-0.1,0.3-0.1,0.5c-0.1,0.2-0.2,0.3-0.3,0.4c-0.1,0.1-0.3,0.2-0.5,0.3
				c-0.2,0.1-0.4,0.2-0.7,0.2c-0.3,0.1-0.6,0.1-0.9,0.1H33v1.5h-1.5V27.8z M34.3,30.6c0.2,0,0.3,0,0.4,0c0.1,0,0.2-0.1,0.3-0.1
				c0.1-0.1,0.1-0.1,0.1-0.2c0-0.1,0-0.2,0-0.3c0-0.1,0-0.3,0-0.4c0-0.1-0.1-0.2-0.1-0.2c-0.1-0.1-0.2-0.1-0.3-0.1
				c-0.1,0-0.3,0-0.4,0H33v1.5H34.3z"/>
			<path class="st1" d="M41.1,27.8h1.6v4.3h2.7v1.4h-4.3V27.8z"/>
			<path class="st1" d="M49.6,27.8h1.6v5.7h-1.6V27.8z"/>
			<path class="st1" d="M57.7,27.8h1.6l2.3,5.7H60l-0.3-0.7h-2.4L57,33.5h-1.5L57.7,27.8z M59.2,31.4l-0.7-1.8l-0.7,1.8H59.2z"/>
			<path class="st1" d="M65.8,27.8h1.7l2.2,3v-3h1.5v5.7h-1.5l-2.5-3.3v3.3h-1.5V27.8z"/>
			<path class="st1" d="M77.3,29.2h-1.9v-1.4h5.4v1.4h-1.9v4.2h-1.6V29.2z"/>
		</g>
	</g>
</g>
</svg>
