<?xml version="1.0" encoding="utf-8"?>
<!-- Generator: Adobe Illustrator 24.0.1, SVG Export Plug-In . SVG Version: 6.00 Build 0)  -->
<svg version="1.1" id="Layer_1" xmlns="http://www.w3.org/2000/svg" xmlns:xlink="http://www.w3.org/1999/xlink" x="0px" y="0px"
	 viewBox="0 0 158.8 10.8" style="enable-background:new 0 0 158.8 10.8;" xml:space="preserve">
<style type="text/css">
	.st0{fill:#FFFFFF;}
	.st1{fill:#3BB54A;}
</style>
<g>
	<path class="st0" d="M0,0.3h4c0.6,0,1.2,0.1,1.6,0.2C6,0.7,6.4,0.9,6.6,1.2c0.3,0.3,0.5,0.6,0.6,1.1c0.1,0.4,0.2,0.9,0.2,1.4
		c0,0.5-0.1,1-0.2,1.4C7.1,5.6,6.9,6,6.6,6.3S6,6.9,5.6,7c-0.4,0.2-1,0.3-1.6,0.3H2.2v3.4H0V0.3z M3.9,5.4c0.5,0,0.8-0.1,1-0.4
		c0.2-0.2,0.3-0.6,0.3-1.2c0-0.3,0-0.5-0.1-0.7c0-0.2-0.1-0.4-0.2-0.5C4.8,2.5,4.7,2.4,4.5,2.4C4.4,2.3,4.2,2.3,3.9,2.3H2.2v3.1H3.9
		z"/>
	<path class="st0" d="M12.2,7.2h-1.4v3.5H8.7V0.3h4c0.6,0,1.2,0.1,1.6,0.2c0.4,0.1,0.8,0.4,1.1,0.6c0.3,0.3,0.5,0.6,0.6,1
		s0.2,0.9,0.2,1.4c0,0.4,0,0.7-0.1,1.1s-0.2,0.6-0.3,0.9c-0.1,0.3-0.3,0.5-0.5,0.7c-0.2,0.2-0.5,0.4-0.8,0.5l1.7,3.8h-2.3L12.2,7.2z
		 M12.6,5.3c0.2,0,0.4,0,0.6-0.1s0.3-0.1,0.4-0.3c0.1-0.1,0.2-0.3,0.2-0.5c0-0.2,0.1-0.4,0.1-0.7s0-0.5-0.1-0.7s-0.1-0.4-0.2-0.5
		c-0.1-0.1-0.2-0.2-0.4-0.3s-0.4-0.1-0.6-0.1h-1.8v3.1H12.6z"/>
	<path class="st0" d="M17.7,0.3h2.2v10.4h-2.2V0.3z"/>
	<path class="st0" d="M25.5,10.8c-0.8,0-1.5-0.1-2-0.4c-0.5-0.2-1-0.6-1.3-1.1c-0.3-0.5-0.5-1-0.7-1.7c-0.1-0.7-0.2-1.4-0.2-2.2
		c0-0.5,0-1,0.1-1.5c0-0.5,0.1-0.9,0.3-1.3C21.8,2.4,22,2,22.2,1.7s0.5-0.6,0.8-0.8c0.3-0.2,0.7-0.4,1.1-0.5c0.4-0.1,1-0.2,1.5-0.2
		c0.6,0,1.1,0.1,1.5,0.2c0.5,0.1,0.9,0.3,1.3,0.6l-1.2,1.8c-0.2-0.1-0.5-0.2-0.7-0.3c-0.3-0.1-0.6-0.1-1-0.1c-0.4,0-0.7,0-0.9,0.1
		c-0.3,0.1-0.5,0.3-0.6,0.5s-0.3,0.6-0.4,1c-0.1,0.4-0.1,0.9-0.1,1.6c0,0.6,0,1.2,0.1,1.6s0.2,0.8,0.4,1c0.2,0.3,0.4,0.4,0.6,0.5
		c0.3,0.1,0.6,0.2,0.9,0.2c0.2,0,0.4,0,0.5,0c0.2,0,0.3-0.1,0.5-0.1c0.1,0,0.3-0.1,0.4-0.2c0.1-0.1,0.3-0.1,0.4-0.2l1.1,1.7
		c-0.2,0.1-0.4,0.2-0.6,0.3c-0.2,0.1-0.4,0.2-0.7,0.3c-0.2,0.1-0.5,0.1-0.8,0.2C26.2,10.8,25.9,10.8,25.5,10.8z"/>
	<path class="st0" d="M29.8,0.3h6.4v2H32v2.1H36v2H32v2.4h4.3v2h-6.4V0.3z"/>
	<path class="st0" d="M43.6,10.8c-0.9,0-1.6-0.1-2.3-0.2c-0.6-0.2-1.2-0.4-1.7-0.7l1.1-1.7c0.1,0.1,0.3,0.2,0.5,0.3
		c0.2,0.1,0.4,0.2,0.6,0.2c0.2,0.1,0.5,0.1,0.8,0.2c0.3,0,0.6,0.1,0.9,0.1c0.3,0,0.5,0,0.7-0.1c0.2,0,0.4-0.1,0.5-0.2S45,8.5,45,8.4
		c0.1-0.1,0.1-0.3,0.1-0.5c0-0.2,0-0.4-0.1-0.6c-0.1-0.1-0.2-0.3-0.3-0.4c-0.2-0.1-0.4-0.2-0.7-0.3s-0.6-0.2-1.1-0.3
		C42.5,6.2,42,6,41.7,5.8c-0.4-0.2-0.6-0.4-0.9-0.6c-0.2-0.2-0.4-0.5-0.5-0.8c-0.1-0.3-0.2-0.7-0.2-1.1c0-0.5,0.1-0.9,0.2-1.3
		c0.2-0.4,0.4-0.7,0.7-1c0.3-0.3,0.7-0.4,1.1-0.6c0.4-0.1,1-0.2,1.5-0.2c0.4,0,0.7,0,1,0c0.3,0,0.6,0.1,0.8,0.1
		c0.3,0.1,0.5,0.1,0.7,0.2c0.2,0.1,0.4,0.2,0.6,0.3l-1,1.9c-0.2-0.1-0.5-0.2-0.9-0.3c-0.4-0.1-0.8-0.1-1.3-0.1
		c-0.5,0-0.9,0.1-1.1,0.2c-0.2,0.1-0.4,0.4-0.4,0.7c0,0.2,0,0.3,0.1,0.4s0.1,0.2,0.3,0.3s0.3,0.2,0.5,0.3c0.2,0.1,0.5,0.2,0.8,0.3
		c0.4,0.1,0.8,0.3,1.1,0.4s0.6,0.3,0.9,0.4s0.5,0.3,0.6,0.4c0.2,0.2,0.3,0.3,0.4,0.6C47,6.5,47.1,6.7,47.2,7c0,0.3,0.1,0.6,0.1,0.9
		c0,0.5-0.1,0.9-0.2,1.2c-0.1,0.4-0.4,0.7-0.7,0.9c-0.3,0.3-0.7,0.5-1.1,0.6C44.8,10.8,44.2,10.8,43.6,10.8z"/>
	<path class="st0" d="M50.6,2.3h-2.8v-2h7.8v2h-2.8v8.4h-2.2V2.3z"/>
	<path class="st0" d="M58.2,0.3h2.4l3.2,10.4h-2.3L61,9.1h-3.4l-0.5,1.6h-2.2L58.2,0.3z M60.5,7.2l-1.2-3.9l-1.2,3.9H60.5z"/>
	<path class="st0" d="M68.4,7.2H67v3.5h-2.2V0.3h4c0.6,0,1.2,0.1,1.6,0.2c0.4,0.1,0.8,0.4,1.1,0.6c0.3,0.3,0.5,0.6,0.6,1
		s0.2,0.9,0.2,1.4c0,0.4,0,0.7-0.1,1.1S72,5.4,71.9,5.7c-0.1,0.3-0.3,0.5-0.5,0.7c-0.2,0.2-0.5,0.4-0.8,0.5l1.7,3.8h-2.3L68.4,7.2z
		 M68.8,5.3c0.2,0,0.4,0,0.6-0.1s0.3-0.1,0.4-0.3C69.9,4.9,70,4.7,70,4.5c0-0.2,0.1-0.4,0.1-0.7s0-0.5-0.1-0.7s-0.1-0.4-0.2-0.5
		c-0.1-0.1-0.2-0.2-0.4-0.3S69,2.3,68.8,2.3H67v3.1H68.8z"/>
	<path class="st0" d="M75.7,2.3h-2.8v-2h7.8v2h-2.8v8.4h-2.2V2.3z"/>
	<path class="st0" d="M85,10.8c-0.9,0-1.6-0.1-2.3-0.2c-0.6-0.2-1.2-0.4-1.7-0.7l1.1-1.7c0.1,0.1,0.3,0.2,0.5,0.3
		c0.2,0.1,0.4,0.2,0.6,0.2c0.2,0.1,0.5,0.1,0.8,0.2c0.3,0,0.6,0.1,0.9,0.1c0.3,0,0.5,0,0.7-0.1c0.2,0,0.4-0.1,0.5-0.2
		s0.2-0.2,0.3-0.3c0.1-0.1,0.1-0.3,0.1-0.5c0-0.2,0-0.4-0.1-0.6C86.3,7.2,86.2,7.1,86,7c-0.2-0.1-0.4-0.2-0.7-0.3s-0.6-0.2-1.1-0.3
		c-0.5-0.1-0.9-0.3-1.2-0.5c-0.4-0.2-0.6-0.4-0.9-0.6C82,5,81.8,4.7,81.7,4.4c-0.1-0.3-0.2-0.7-0.2-1.1c0-0.5,0.1-0.9,0.2-1.3
		c0.2-0.4,0.4-0.7,0.7-1c0.3-0.3,0.7-0.4,1.1-0.6c0.4-0.1,1-0.2,1.5-0.2c0.4,0,0.7,0,1,0c0.3,0,0.6,0.1,0.8,0.1
		c0.3,0.1,0.5,0.1,0.7,0.2c0.2,0.1,0.4,0.2,0.6,0.3l-1,1.9c-0.2-0.1-0.5-0.2-0.9-0.3c-0.4-0.1-0.8-0.1-1.3-0.1
		c-0.5,0-0.9,0.1-1.1,0.2c-0.2,0.1-0.4,0.4-0.4,0.7c0,0.2,0,0.3,0.1,0.4S83.9,3.9,84,4s0.3,0.2,0.5,0.3c0.2,0.1,0.5,0.2,0.8,0.3
		c0.4,0.1,0.8,0.3,1.1,0.4s0.6,0.3,0.9,0.4s0.5,0.3,0.6,0.4c0.2,0.2,0.3,0.3,0.4,0.6c0.1,0.2,0.2,0.4,0.2,0.7c0,0.3,0.1,0.6,0.1,0.9
		c0,0.5-0.1,0.9-0.2,1.2C88.3,9.5,88,9.8,87.7,10c-0.3,0.3-0.7,0.5-1.1,0.6C86.1,10.8,85.6,10.8,85,10.8z"/>
	<path class="st0" d="M95.1,0.3h2.4l3.2,10.4h-2.3L98,9.1h-3.4l-0.5,1.6h-2.2L95.1,0.3z M97.4,7.2l-1.2-3.9L95,7.2H97.4z"/>
	<path class="st0" d="M102.8,2.3H100v-2h7.8v2H105v8.4h-2.2V2.3z"/>
	<path class="st0" d="M111.2,0.5h6.6v0c-0.4,0.6-0.6,0.9-0.7,1h-1.8c0.2,0.3,0.4,0.6,0.5,1h1.9c0,0,0,0,0,0
		c-0.4,0.6-0.6,0.9-0.6,0.9h-1.2c0,0.3-0.2,0.7-0.5,1.2c-0.4,0.5-0.7,0.8-1.1,0.9c-0.6,0.3-1.2,0.5-1.8,0.5v0c0,0,0.1,0.2,0.4,0.6
		l3.2,3.9v0.2c0,0,0,0,0,0h-1.4c-2.6-3-3.9-4.5-3.9-4.5V5.3l0,0c0.2,0,0.5,0,0.8,0c1.4,0,2.3-0.5,2.7-1.4c0.1-0.1,0.1-0.3,0.1-0.4
		h-3.9c0,0,0,0,0,0c0.4-0.6,0.7-0.9,0.7-0.9h3.1v0c-0.2-0.4-0.5-0.6-1-0.8c-0.4-0.1-0.7-0.2-1-0.2h-1.7v0
		C111,0.8,111.2,0.5,111.2,0.5z"/>
	<path class="st0" d="M122.1,10.8c-0.5,0-1,0-1.4-0.1c-0.4-0.1-0.7-0.2-1-0.3c-0.3-0.1-0.5-0.3-0.7-0.5c-0.2-0.2-0.3-0.4-0.4-0.6
		s-0.2-0.5-0.2-0.7c0-0.3,0-0.5,0-0.8c0-0.3,0-0.6,0-0.9c0-0.3,0.1-0.5,0.2-0.8c0.1-0.2,0.2-0.4,0.4-0.6c0.2-0.2,0.4-0.3,0.7-0.5
		c-0.2-0.1-0.4-0.2-0.6-0.4c-0.1-0.2-0.3-0.3-0.3-0.5s-0.1-0.4-0.2-0.6c0-0.2,0-0.5,0-0.7c0-0.3,0-0.6,0.1-1
		c0.1-0.3,0.3-0.6,0.5-0.8c0.2-0.2,0.6-0.4,1-0.6c0.4-0.1,1-0.2,1.7-0.2c0.7,0,1.3,0.1,1.7,0.2c0.4,0.1,0.8,0.3,1,0.6
		s0.4,0.5,0.5,0.8c0.1,0.3,0.1,0.6,0.1,1c0,0.2,0,0.5,0,0.7c0,0.2-0.1,0.4-0.2,0.6c-0.1,0.2-0.2,0.4-0.3,0.5s-0.3,0.3-0.6,0.4
		c0.3,0.1,0.6,0.3,0.8,0.5s0.3,0.4,0.4,0.6c0.1,0.2,0.2,0.5,0.2,0.8c0,0.3,0,0.6,0,0.9c0,0.3,0,0.5,0,0.8c0,0.3-0.1,0.5-0.2,0.7
		s-0.2,0.4-0.4,0.6c-0.2,0.2-0.4,0.4-0.7,0.5c-0.3,0.1-0.6,0.2-1,0.3C123.1,10.8,122.6,10.8,122.1,10.8z M122.1,9
		c0.3,0,0.6,0,0.8-0.1s0.4-0.2,0.5-0.3c0.1-0.1,0.2-0.3,0.2-0.5c0-0.2,0.1-0.4,0.1-0.6c0-0.2,0-0.5-0.1-0.6c0-0.2-0.1-0.4-0.2-0.5
		s-0.3-0.2-0.5-0.3s-0.5-0.1-0.8-0.1s-0.6,0-0.8,0.1s-0.4,0.2-0.5,0.3s-0.2,0.3-0.2,0.5s-0.1,0.4-0.1,0.6c0,0.2,0,0.4,0.1,0.6
		c0,0.2,0.1,0.4,0.2,0.5c0.1,0.1,0.3,0.2,0.5,0.3S121.8,9,122.1,9z M122.1,4.4c0.3,0,0.5,0,0.6-0.1s0.3-0.1,0.4-0.2
		c0.1-0.1,0.2-0.2,0.2-0.4c0-0.1,0.1-0.3,0.1-0.5s0-0.4-0.1-0.5c0-0.1-0.1-0.3-0.2-0.4c-0.1-0.1-0.2-0.2-0.4-0.2S122.3,2,122.1,2
		c-0.3,0-0.5,0-0.6,0.1s-0.3,0.1-0.4,0.2s-0.2,0.2-0.2,0.4s-0.1,0.3-0.1,0.5s0,0.4,0.1,0.5c0,0.1,0.1,0.3,0.2,0.4
		c0.1,0.1,0.2,0.2,0.4,0.2S121.8,4.4,122.1,4.4z"/>
	<path class="st0" d="M127,8.2h2.4v2.5H127V8.2z"/>
	<path class="st0" d="M134.5,10.8c-0.6,0-1-0.1-1.4-0.2c-0.4-0.1-0.8-0.3-1-0.5c-0.3-0.2-0.5-0.5-0.7-0.8c-0.2-0.3-0.3-0.7-0.4-1
		s-0.2-0.8-0.2-1.3c0-0.5-0.1-1-0.1-1.6c0-0.5,0-1.1,0-1.5s0.1-0.9,0.2-1.3c0.1-0.4,0.2-0.7,0.4-1.1c0.2-0.3,0.4-0.6,0.7-0.8
		c0.3-0.2,0.6-0.4,1-0.5c0.4-0.1,0.9-0.2,1.5-0.2c0.6,0,1,0.1,1.4,0.2s0.7,0.3,1,0.5s0.5,0.5,0.7,0.8s0.3,0.7,0.4,1.1
		c0.1,0.4,0.2,0.8,0.2,1.3c0,0.5,0,1,0,1.5c0,0.6,0,1.1,0,1.6c0,0.5-0.1,0.9-0.2,1.3c-0.1,0.4-0.2,0.7-0.4,1
		c-0.2,0.3-0.4,0.6-0.7,0.8c-0.3,0.2-0.6,0.4-1,0.5S135.1,10.8,134.5,10.8z M134.5,8.9c0.3,0,0.6-0.1,0.8-0.2
		c0.2-0.1,0.4-0.3,0.5-0.6c0.1-0.3,0.2-0.6,0.2-1c0-0.4,0.1-0.9,0.1-1.5c0-0.6,0-1.1-0.1-1.5s-0.1-0.8-0.2-1
		c-0.1-0.3-0.3-0.5-0.5-0.6s-0.5-0.2-0.8-0.2c-0.3,0-0.6,0.1-0.8,0.2c-0.2,0.1-0.4,0.3-0.5,0.6c-0.1,0.3-0.2,0.6-0.2,1
		s-0.1,0.9-0.1,1.5c0,0.6,0,1.1,0.1,1.5c0,0.4,0.1,0.8,0.2,1c0.1,0.3,0.3,0.5,0.5,0.6C133.9,8.8,134.2,8.9,134.5,8.9z"/>
	<path class="st0" d="M139.5,7l3.6-6.7h2.2l-3.6,6.6h2.1l0.4-2.9h1.5v2.9h1.3v1.8h-1.3v2h-2v-2h-4.4V7z"/>
	<path class="st0" d="M148.3,0.3h2.2v8.4h4v2h-6.2V0.3z"/>
	<path class="st0" d="M156.6,2.8l-0.9,0.7l-0.5-0.9l1.1-0.6l-1.1-0.6l0.5-0.9l0.9,0.7L156.5,0h1l-0.1,1.3l0.9-0.7l0.5,0.9L157.7,2
		l1.1,0.6l-0.5,0.9l-0.9-0.7l0.1,1.3h-1L156.6,2.8z"/>
</g>
</svg>
