<?xml version="1.0" encoding="utf-8"?>
<!-- Generator: Adobe Illustrator 24.0.1, SVG Export Plug-In . SVG Version: 6.00 Build 0)  -->
<svg version="1.1" id="Layer_1" xmlns="http://www.w3.org/2000/svg" xmlns:xlink="http://www.w3.org/1999/xlink" x="0px" y="0px"
	 viewBox="0 0 285.5 15.3" style="enable-background:new 0 0 285.5 15.3;" xml:space="preserve">
<style type="text/css">
	.st0{fill:#3BB54A;}
	.st1{fill:#FFFFFF;}
</style>
<g>
	<path class="st1" d="M4.6,0.2H8l4.6,14.9H9.4l-0.7-2.3H3.8l-0.7,2.3H0L4.6,0.2z M7.9,10.1L6.3,4.4l-1.7,5.6H7.9z"/>
	<path class="st1" d="M12.2,0.3h3.2l3.1,10.4l3-10.4h3.2l-4.6,14.9h-3.4L12.2,0.3z"/>
	<path class="st1" d="M28.8,0.2h3.4l4.6,14.9h-3.2l-0.7-2.3H28l-0.7,2.3h-3.1L28.8,0.2z M32.1,10.1l-1.7-5.6l-1.7,5.6H32.1z"/>
	<path class="st1" d="M38.6,0.3h3.1v14.8h-3.1V0.3z"/>
	<path class="st1" d="M44.4,0.3h3.1v12h5.8v2.8h-8.9V0.3z"/>
	<path class="st1" d="M58.6,0.2h3.4l4.6,14.9h-3.2l-0.7-2.3h-4.9l-0.7,2.3h-3.1L58.6,0.2z M61.9,10.1l-1.7-5.6l-1.7,5.6H61.9z"/>
	<path class="st1" d="M68.2,0.3h5.4c0.9,0,1.6,0.1,2.2,0.3s1.1,0.4,1.5,0.7s0.6,0.7,0.8,1.2s0.3,1,0.3,1.6c0,0.9-0.2,1.6-0.5,2.1
		s-0.7,0.9-1.3,1.1c0.3,0.1,0.6,0.3,0.9,0.5s0.5,0.4,0.6,0.7s0.3,0.6,0.4,1s0.1,0.9,0.1,1.4c0,0.7-0.1,1.4-0.3,1.9s-0.5,1-1,1.3
		s-0.9,0.6-1.5,0.7s-1.3,0.2-2.1,0.2h-5.5V0.3z M73.5,6.3c0.6,0,1-0.1,1.3-0.4s0.4-0.7,0.4-1.3s-0.1-1-0.4-1.2S74.1,3,73.5,3h-2.2
		v3.3H73.5z M73.7,12.5c0.3,0,0.5,0,0.8-0.1s0.4-0.2,0.6-0.3s0.3-0.3,0.4-0.5s0.1-0.5,0.1-0.8s0-0.6-0.1-0.8S75.1,9.5,75,9.4
		s-0.3-0.2-0.6-0.3S73.9,9,73.6,9h-2.4v3.5H73.7z"/>
	<path class="st1" d="M80.7,0.3h3.1v12h5.8v2.8h-8.9V0.3z"/>
	<path class="st1" d="M91.2,0.3h9.1v2.9h-6.1v3h5.8V9h-5.8v3.4h6.1v2.8h-9.2V0.3z"/>
	<path class="st1" d="M106.3,0.3h3.1v14.8h-3.1V0.3z"/>
	<path class="st1" d="M112.1,0.3h3.3l4.9,8.5V0.3h3v14.8h-2.9l-5.3-9.2v9.2h-3V0.3z"/>
	<path class="st1" d="M129.3,0.3h4.6c1.2,0,2.2,0.1,3,0.4s1.5,0.6,2,1.2s0.9,1.3,1.1,2.3s0.4,2.1,0.4,3.5c0,1.4-0.1,2.6-0.4,3.6
		c-0.2,1-0.6,1.7-1.1,2.3s-1.2,1-2,1.2s-1.8,0.3-3,0.3h-4.6V0.3z M134.2,12.4c0.5,0,1-0.1,1.4-0.2s0.7-0.4,0.9-0.7s0.4-0.8,0.5-1.4
		s0.2-1.4,0.2-2.3c0-0.9-0.1-1.7-0.2-2.3s-0.3-1.1-0.5-1.4s-0.6-0.6-1-0.7s-0.9-0.2-1.5-0.2h-1.7v9.2H134.2z"/>
	<path class="st1" d="M142.6,0.3h3.1v14.8h-3.1V0.3z"/>
	<path class="st1" d="M148.4,0.3h9.1v2.9h-6.1v3h5.8V9h-5.8v3.4h6.1v2.8h-9.2V0.3z"/>
	<path class="st1" d="M164.2,15.3c-1.2,0-2.3-0.1-3.2-0.3s-1.7-0.6-2.4-1l1.6-2.4c0.2,0.1,0.4,0.3,0.7,0.4s0.6,0.2,0.9,0.3
		s0.7,0.2,1.1,0.2s0.8,0.1,1.2,0.1c0.4,0,0.8,0,1.1-0.1s0.5-0.2,0.7-0.3s0.3-0.3,0.4-0.5s0.1-0.4,0.1-0.7c0-0.3,0-0.6-0.1-0.8
		s-0.3-0.4-0.5-0.5s-0.6-0.3-1-0.4s-0.9-0.3-1.5-0.5c-0.7-0.2-1.3-0.4-1.8-0.7s-0.9-0.6-1.3-0.9s-0.6-0.7-0.7-1.2s-0.2-1-0.2-1.6
		c0-0.7,0.1-1.4,0.3-1.9s0.6-1,1-1.4s1-0.6,1.6-0.8s1.4-0.3,2.2-0.3c0.5,0,1,0,1.4,0.1s0.8,0.1,1.2,0.2s0.7,0.2,1,0.3
		s0.6,0.2,0.9,0.4l-1.4,2.7c-0.4-0.2-0.8-0.3-1.3-0.5s-1.1-0.2-1.8-0.2c-0.8,0-1.3,0.1-1.6,0.3s-0.5,0.5-0.5,1c0,0.3,0,0.5,0.1,0.6
		s0.2,0.3,0.4,0.4s0.4,0.3,0.7,0.4s0.7,0.2,1.1,0.4c0.6,0.2,1.1,0.4,1.6,0.5s0.9,0.4,1.2,0.6s0.7,0.4,0.9,0.6s0.4,0.5,0.6,0.8
		s0.3,0.6,0.3,1s0.1,0.8,0.1,1.3c0,0.7-0.1,1.2-0.3,1.8s-0.5,1-0.9,1.3s-1,0.7-1.6,0.8S165.1,15.3,164.2,15.3z"/>
	<path class="st1" d="M171.4,0.3h9.1v2.9h-6.1v3h5.8V9h-5.8v3.4h6.1v2.8h-9.2V0.3z"/>
	<path class="st1" d="M182.7,0.3h3.1v12h5.8v2.8h-8.9V0.3z"/>
	<path class="st1" d="M201.3,15.3c-0.9,0-1.6-0.1-2.3-0.2s-1.2-0.4-1.6-0.7s-0.8-0.8-1-1.3s-0.3-1.2-0.3-1.9c0-0.6,0.1-1.1,0.2-1.5
		s0.3-0.8,0.6-1.1s0.6-0.6,0.9-0.9s0.7-0.5,1.1-0.7c-0.3-0.5-0.6-1-0.7-1.5s-0.3-1.1-0.3-1.6c0-0.6,0.1-1.2,0.3-1.7s0.4-0.9,0.8-1.2
		s0.7-0.5,1.2-0.7s1-0.2,1.6-0.2s1.1,0.1,1.6,0.2s0.9,0.4,1.2,0.7s0.6,0.7,0.7,1.2s0.2,1,0.2,1.7c0,0.5-0.1,0.9-0.2,1.3
		s-0.3,0.7-0.6,1s-0.5,0.6-0.8,0.9s-0.6,0.5-1,0.7c0.1,0.1,0.3,0.3,0.4,0.4s0.3,0.3,0.4,0.5l1.6,1.7c0.2-0.6,0.4-1.2,0.5-2
		s0.2-1.5,0.4-2.4l2.5,0.3c-0.1,1.3-0.3,2.5-0.6,3.5s-0.6,1.9-1,2.7l2.5,2.8h-3.7l-0.7-0.8c-0.5,0.3-1.1,0.5-1.8,0.7
		S202.2,15.3,201.3,15.3z M201.3,12.8c0.5,0,0.9,0,1.3-0.1s0.7-0.2,1-0.3l-2.1-2.3c-0.2-0.2-0.4-0.4-0.5-0.6s-0.3-0.4-0.5-0.6
		c-0.2,0.1-0.4,0.3-0.5,0.4s-0.3,0.3-0.4,0.5s-0.2,0.3-0.3,0.5s-0.1,0.4-0.1,0.6c0,0.2,0,0.5,0.1,0.7s0.1,0.4,0.3,0.6
		s0.4,0.3,0.7,0.4S200.8,12.8,201.3,12.8z M200.9,3.7c0,0.3,0.1,0.7,0.2,1s0.3,0.6,0.5,1c0.4-0.3,0.7-0.5,1-0.9s0.4-0.7,0.4-1.1
		c0-0.4-0.1-0.7-0.2-0.8s-0.4-0.3-0.8-0.3s-0.6,0.1-0.8,0.3S200.9,3.3,200.9,3.7z"/>
	<path class="st1" d="M215.1,0.3h5.7c0.9,0,1.6,0.1,2.3,0.3s1.1,0.5,1.5,1s0.7,0.9,0.8,1.5s0.3,1.3,0.3,2c0,0.7-0.1,1.4-0.3,2.1
		s-0.5,1.2-0.8,1.6s-0.9,0.8-1.5,1.1s-1.4,0.4-2.3,0.4h-2.6v4.9h-3.1V0.3z M220.7,7.5c0.7,0,1.2-0.2,1.5-0.5s0.5-0.9,0.5-1.7
		c0-0.4,0-0.7-0.1-1s-0.2-0.5-0.3-0.7s-0.4-0.3-0.6-0.4s-0.5-0.1-0.9-0.1h-2.5v4.5H220.7z"/>
	<path class="st1" d="M227.6,0.3h9.1v2.9h-6.1v3h5.8V9h-5.8v3.4h6.1v2.8h-9.2V0.3z"/>
	<path class="st1" d="M241.7,3.2h-4V0.3h11.1v2.9h-4v12h-3.2V3.2z"/>
	<path class="st1" d="M255.5,10.2h-2v5h-3.1V0.3h5.7c0.9,0,1.6,0.1,2.3,0.3s1.1,0.5,1.5,0.9s0.7,0.9,0.8,1.5s0.3,1.3,0.3,2
		c0,0.5,0,1.1-0.1,1.5s-0.2,0.9-0.4,1.3S260,8.7,259.7,9s-0.7,0.6-1.1,0.8l2.4,5.4h-3.3L255.5,10.2z M256.1,7.4c0.3,0,0.6,0,0.9-0.1
		s0.4-0.2,0.6-0.4s0.3-0.4,0.3-0.7s0.1-0.6,0.1-1s0-0.7-0.1-1s-0.2-0.5-0.3-0.7s-0.3-0.3-0.6-0.4s-0.5-0.1-0.9-0.1h-2.5v4.4H256.1z"
		/>
	<path class="st1" d="M268.6,15.3c-0.9,0-1.7-0.1-2.3-0.3s-1.2-0.5-1.7-0.8s-0.8-0.7-1.1-1.2s-0.5-1-0.7-1.5
		c-0.2-0.6-0.3-1.2-0.3-1.8s-0.1-1.3-0.1-2s0-1.3,0.1-2s0.2-1.2,0.3-1.8s0.4-1.1,0.7-1.5s0.7-0.9,1.1-1.2s1-0.6,1.7-0.8
		s1.4-0.3,2.3-0.3s1.7,0.1,2.3,0.3s1.2,0.5,1.7,0.8s0.8,0.7,1.1,1.2s0.5,1,0.7,1.5s0.3,1.2,0.3,1.8s0.1,1.3,0.1,2s0,1.3-0.1,2
		s-0.2,1.2-0.3,1.8c-0.2,0.6-0.4,1.1-0.7,1.5s-0.7,0.9-1.1,1.2s-1,0.6-1.7,0.8S269.5,15.3,268.6,15.3z M268.6,12.5
		c0.7,0,1.2-0.1,1.6-0.3s0.7-0.5,0.9-1c0.2-0.4,0.3-0.9,0.4-1.5s0.1-1.2,0.1-1.9c0-0.7,0-1.3-0.1-1.9s-0.2-1.1-0.4-1.5
		s-0.5-0.7-0.9-1s-0.9-0.3-1.6-0.3s-1.2,0.1-1.6,0.3s-0.7,0.5-0.9,1s-0.3,0.9-0.4,1.5s-0.1,1.2-0.1,1.9c0,0.7,0,1.3,0.1,1.9
		s0.2,1.1,0.4,1.5c0.2,0.4,0.5,0.7,0.9,1S267.9,12.5,268.6,12.5z"/>
	<path class="st1" d="M276.6,0.3h3.1v12h5.8v2.8h-8.9V0.3z"/>
</g>
</svg>
