<?xml version="1.0" encoding="utf-8"?>
<!-- Generator: Adobe Illustrator 24.0.1, SVG Export Plug-In . SVG Version: 6.00 Build 0)  -->
<svg version="1.1" id="Layer_1" xmlns="http://www.w3.org/2000/svg" xmlns:xlink="http://www.w3.org/1999/xlink" x="0px" y="0px"
	 viewBox="0 0 298 35.2" style="enable-background:new 0 0 298 35.2;" xml:space="preserve">
<style type="text/css">
	.st0{fill:#404041;}
	.st1{fill:#FFFFFF;}
	.st2{fill:#3BB54A;}
</style>
<g>
	<path class="st0" d="M71.2,15.2c-1.1,0-2.1-0.2-2.8-0.5s-1.3-0.8-1.8-1.5s-0.7-1.4-0.9-2.4s-0.3-2-0.3-3.2c0-1.3,0.1-2.5,0.3-3.4
		s0.6-1.7,1.1-2.4s1.1-1.1,1.9-1.4s1.8-0.4,3-0.4c0.9,0,1.7,0.1,2.4,0.3s1.3,0.5,1.9,0.8l-1.7,2.6c-0.2-0.1-0.4-0.2-0.5-0.3
		s-0.4-0.2-0.6-0.2s-0.5-0.1-0.7-0.2S71.9,3,71.6,3c-0.5,0-0.9,0.1-1.3,0.2s-0.7,0.3-0.9,0.7s-0.4,0.8-0.6,1.4s-0.2,1.4-0.2,2.4
		c0,0.9,0,1.7,0.1,2.3s0.3,1.1,0.5,1.5s0.5,0.6,0.9,0.8s0.8,0.2,1.4,0.2c0.5,0,0.9-0.1,1.1-0.2s0.5-0.3,0.7-0.6s0.3-0.6,0.3-1
		s0.1-0.9,0.1-1.5V8.9h-2.9V6.2h5.9v2.5c0,1.2-0.1,2.2-0.2,3s-0.4,1.5-0.8,2s-1,0.9-1.7,1.1S72.3,15.2,71.2,15.2z"/>
	<path class="st0" d="M78.8,0.2h3.1V15h-3.1V0.2z"/>
	<path class="st0" d="M83.7,0.2h3.2L90,10.6l3-10.4h3.2l-4.6,14.9h-3.4L83.7,0.2z"/>
	<path class="st0" d="M97.7,0.2h9.1V3h-6.1v3h5.8v2.8h-5.8v3.4h6.1V15h-9.2V0.2z"/>
	<path class="st0" d="M116.2,10l-4.7-9.8h3.3l3,6.5l3-6.5h3.2l-4.7,9.8v5h-3.1V10z"/>
	<path class="st0" d="M130.3,15.2c-0.9,0-1.7-0.1-2.3-0.3s-1.2-0.5-1.7-0.8s-0.8-0.7-1.1-1.2s-0.5-1-0.7-1.5s-0.3-1.2-0.3-1.8
		s-0.1-1.3-0.1-2s0-1.3,0.1-2s0.2-1.2,0.3-1.8s0.4-1.1,0.7-1.5s0.7-0.9,1.1-1.2s1-0.6,1.7-0.8s1.4-0.3,2.3-0.3s1.7,0.1,2.3,0.3
		s1.2,0.5,1.7,0.8s0.8,0.7,1.1,1.2s0.5,1,0.7,1.5s0.3,1.2,0.3,1.8s0.1,1.3,0.1,2s0,1.3-0.1,2s-0.2,1.2-0.3,1.8s-0.4,1.1-0.7,1.5
		s-0.7,0.9-1.1,1.2s-1,0.6-1.7,0.8S131.2,15.2,130.3,15.2z M130.3,12.4c0.7,0,1.2-0.1,1.6-0.3s0.7-0.5,0.9-1s0.3-0.9,0.4-1.5
		s0.1-1.2,0.1-1.9c0-0.7,0-1.3-0.1-1.9s-0.2-1.1-0.4-1.5s-0.5-0.7-0.9-1S131,3,130.3,3s-1.2,0.1-1.6,0.3s-0.7,0.5-0.9,1
		s-0.3,0.9-0.4,1.5s-0.1,1.2-0.1,1.9c0,0.7,0,1.3,0.1,1.9s0.2,1.1,0.4,1.5s0.5,0.7,0.9,1S129.7,12.4,130.3,12.4z"/>
	<path class="st0" d="M143.8,15.2c-1.1,0-1.9-0.1-2.7-0.4s-1.3-0.6-1.7-1s-0.8-1-0.9-1.7s-0.3-1.5-0.3-2.3V0.2h3.1v9.3
		c0,0.5,0,0.9,0.1,1.3s0.2,0.7,0.4,0.9s0.4,0.4,0.8,0.5s0.7,0.2,1.3,0.2c0.5,0,0.9-0.1,1.2-0.2s0.6-0.3,0.8-0.5s0.3-0.5,0.4-0.9
		s0.1-0.8,0.1-1.3V0.2h3v9.6c0,0.9-0.1,1.7-0.3,2.3s-0.5,1.2-0.9,1.7s-1,0.8-1.7,1S144.8,15.2,143.8,15.2z"/>
	<path class="st0" d="M156.9,10h-2v5h-3.1V0.2h5.7c0.9,0,1.6,0.1,2.3,0.3s1.1,0.5,1.5,0.9s0.7,0.9,0.8,1.5s0.3,1.3,0.3,2
		c0,0.5,0,1.1-0.1,1.5s-0.2,0.9-0.4,1.3s-0.5,0.8-0.8,1.1s-0.7,0.6-1.1,0.8l2.4,5.4H159L156.9,10z M157.4,7.3c0.3,0,0.6,0,0.9-0.1
		s0.4-0.2,0.6-0.4s0.3-0.4,0.3-0.7s0.1-0.6,0.1-1s0-0.7-0.1-1s-0.2-0.5-0.3-0.7s-0.3-0.3-0.6-0.4s-0.5-0.1-0.9-0.1h-2.5v4.4H157.4z"
		/>
	<path class="st0" d="M168.1,0.2h9.2V3h-6v3.2h5.7v2.8h-5.7V15h-3.1V0.2z"/>
	<path class="st0" d="M181.7,0.1h3.4l4.6,14.9h-3.2l-0.7-2.3h-4.9l-0.7,2.3h-3.1L181.7,0.1z M185,9.9l-1.7-5.6l-1.7,5.6H185z"/>
	<path class="st0" d="M191.3,0.2h4l2.9,9.4l2.9-9.4h4V15H202V5.5l-3,9.5h-2l-3-9.5V15h-2.8V0.2z"/>
	<path class="st0" d="M207.8,0.2h3.1V15h-3.1V0.2z"/>
	<path class="st0" d="M213.6,0.2h3.1v12h5.8V15h-8.9V0.2z"/>
	<path class="st0" d="M225.9,10l-4.7-9.8h3.3l3,6.5l3-6.5h3.2L229,10v5h-3.1V10z"/>
	<path class="st0" d="M4,23H0v-2.9h11.1V23h-4v12H4V23z"/>
	<path class="st0" d="M12.7,20.2h3.1v5.6h4.9v-5.6h3.2V35h-3.2v-6.1h-4.9V35h-3.1V20.2z"/>
	<path class="st0" d="M26.5,20.2h9.1V23h-6.1v3h5.8v2.8h-5.8v3.4h6.1V35h-9.2V20.2z"/>
	<path class="st0" d="M41.4,20.2h5.7c0.9,0,1.6,0.1,2.3,0.3s1.1,0.5,1.5,1s0.7,0.9,0.8,1.5s0.3,1.3,0.3,2c0,0.7-0.1,1.4-0.3,2.1
		s-0.5,1.2-0.8,1.6s-0.9,0.8-1.5,1.1s-1.4,0.4-2.3,0.4h-2.6V35h-3.1V20.2z M47,27.4c0.7,0,1.2-0.2,1.5-0.5s0.5-0.9,0.5-1.7
		c0-0.4,0-0.7-0.1-1s-0.2-0.5-0.3-0.7s-0.4-0.3-0.6-0.4s-0.5-0.1-0.9-0.1h-2.5v4.5H47z"/>
	<path class="st0" d="M58.9,30h-2v5h-3.1V20.2h5.7c0.9,0,1.6,0.1,2.3,0.3s1.1,0.5,1.5,0.9s0.7,0.9,0.8,1.5s0.3,1.3,0.3,2
		c0,0.5,0,1.1-0.1,1.5s-0.2,0.9-0.4,1.3s-0.5,0.8-0.8,1.1s-0.7,0.6-1.1,0.8l2.4,5.4H61L58.9,30z M59.4,27.3c0.3,0,0.6,0,0.9-0.1
		s0.4-0.2,0.6-0.4s0.3-0.4,0.3-0.7s0.1-0.6,0.1-1s0-0.7-0.1-1s-0.2-0.5-0.3-0.7s-0.3-0.3-0.6-0.4s-0.5-0.1-0.9-0.1h-2.5v4.4H59.4z"
		/>
	<path class="st0" d="M72,35.2c-0.9,0-1.7-0.1-2.3-0.3s-1.2-0.5-1.7-0.8s-0.8-0.7-1.1-1.2s-0.5-1-0.7-1.5s-0.3-1.2-0.3-1.8
		s-0.1-1.3-0.1-2s0-1.3,0.1-2s0.2-1.2,0.3-1.8s0.4-1.1,0.7-1.5s0.7-0.9,1.1-1.2s1-0.6,1.7-0.8S71.1,20,72,20s1.7,0.1,2.3,0.3
		s1.2,0.5,1.7,0.8s0.8,0.7,1.1,1.2s0.5,1,0.7,1.5s0.3,1.2,0.3,1.8s0.1,1.3,0.1,2s0,1.3-0.1,2s-0.2,1.2-0.3,1.8s-0.4,1.1-0.7,1.5
		s-0.7,0.9-1.1,1.2s-1,0.6-1.7,0.8S72.8,35.2,72,35.2z M72,32.4c0.7,0,1.2-0.1,1.6-0.3s0.7-0.5,0.9-1s0.3-0.9,0.4-1.5
		s0.1-1.2,0.1-1.9c0-0.7,0-1.3-0.1-1.9s-0.2-1.1-0.4-1.5s-0.5-0.7-0.9-1S72.6,23,72,23s-1.2,0.1-1.6,0.3s-0.7,0.5-0.9,1
		s-0.3,0.9-0.4,1.5S69,27,69,27.7c0,0.7,0,1.3,0.1,1.9s0.2,1.1,0.4,1.5s0.5,0.7,0.9,1S71.3,32.4,72,32.4z"/>
	<path class="st0" d="M82.7,23h-4v-2.9h11.1V23h-4v12h-3.2V23z"/>
	<path class="st0" d="M91.4,20.2h9.1V23h-6.1v3h5.8v2.8h-5.8v3.4h6.1V35h-9.2V20.2z"/>
	<path class="st0" d="M107.9,35.2c-1.2,0-2.1-0.2-2.9-0.5s-1.4-0.9-1.8-1.5s-0.8-1.5-1-2.4s-0.3-2-0.3-3.1c0-0.7,0-1.5,0.1-2.1
		s0.2-1.3,0.4-1.8s0.4-1.1,0.7-1.5s0.7-0.8,1.1-1.1s1-0.6,1.6-0.7s1.4-0.2,2.2-0.2c0.8,0,1.5,0.1,2.2,0.3s1.3,0.5,1.8,0.8l-1.7,2.6
		c-0.3-0.2-0.7-0.3-1.1-0.5s-0.9-0.2-1.4-0.2c-0.5,0-1,0.1-1.3,0.2s-0.7,0.4-0.9,0.7s-0.4,0.8-0.5,1.4s-0.2,1.3-0.2,2.3
		c0,0.9,0.1,1.6,0.2,2.2s0.3,1.1,0.5,1.4s0.5,0.6,0.9,0.8s0.8,0.2,1.3,0.2c0.3,0,0.5,0,0.7,0s0.4-0.1,0.7-0.1s0.4-0.1,0.6-0.2
		s0.4-0.2,0.6-0.3l1.5,2.4c-0.3,0.2-0.6,0.3-0.9,0.5s-0.6,0.3-1,0.4s-0.7,0.2-1.1,0.2S108.4,35.2,107.9,35.2z"/>
	<path class="st0" d="M117.1,23h-4v-2.9h11.1V23h-4v12h-3.2V23z"/>
	<path class="st0" d="M126,20.2h3.1V35H126V20.2z"/>
	<path class="st0" d="M137.4,35.2c-0.9,0-1.7-0.1-2.3-0.3s-1.2-0.5-1.7-0.8s-0.8-0.7-1.1-1.2s-0.5-1-0.7-1.5s-0.3-1.2-0.3-1.8
		s-0.1-1.3-0.1-2s0-1.3,0.1-2s0.2-1.2,0.3-1.8s0.4-1.1,0.7-1.5s0.7-0.9,1.1-1.2s1-0.6,1.7-0.8s1.4-0.3,2.3-0.3s1.7,0.1,2.3,0.3
		s1.2,0.5,1.7,0.8s0.8,0.7,1.1,1.2s0.5,1,0.7,1.5s0.3,1.2,0.3,1.8s0.1,1.3,0.1,2s0,1.3-0.1,2s-0.2,1.2-0.3,1.8s-0.4,1.1-0.7,1.5
		s-0.7,0.9-1.1,1.2s-1,0.6-1.7,0.8S138.3,35.2,137.4,35.2z M137.4,32.4c0.7,0,1.2-0.1,1.6-0.3s0.7-0.5,0.9-1s0.3-0.9,0.4-1.5
		s0.1-1.2,0.1-1.9c0-0.7,0-1.3-0.1-1.9s-0.2-1.1-0.4-1.5s-0.5-0.7-0.9-1S138,23,137.4,23s-1.2,0.1-1.6,0.3s-0.7,0.5-0.9,1
		s-0.3,0.9-0.4,1.5s-0.1,1.2-0.1,1.9c0,0.7,0,1.3,0.1,1.9s0.2,1.1,0.4,1.5s0.5,0.7,0.9,1S136.7,32.4,137.4,32.4z"/>
	<path class="st0" d="M145.4,20.2h3.3l4.9,8.5v-8.5h3V35h-2.9l-5.3-9.2V35h-3V20.2z"/>
	<path class="st0" d="M165.7,23h-4v-2.9h11.1V23h-4v12h-3.2V23z"/>
	<path class="st0" d="M174.5,20.2h3.1v5.6h4.9v-5.6h3.2V35h-3.2v-6.1h-4.9V35h-3.1V20.2z"/>
	<path class="st0" d="M188.2,20.2h9.1V23h-6.1v3h5.8v2.8h-5.8v3.4h6.1V35h-9.2V20.2z"/>
	<path class="st0" d="M203,30l-4.7-9.8h3.3l3,6.5l3-6.5h3.2l-4.7,9.8v5H203V30z"/>
	<path class="st0" d="M215.8,20.2h4.6c1.2,0,2.2,0.1,3,0.4s1.5,0.6,2,1.2s0.9,1.3,1.1,2.3s0.4,2.1,0.4,3.5c0,1.4-0.1,2.6-0.4,3.6
		s-0.6,1.7-1.1,2.3s-1.2,1-2,1.2s-1.8,0.3-3,0.3h-4.6V20.2z M220.7,32.3c0.5,0,1-0.1,1.4-0.2s0.7-0.4,0.9-0.7s0.4-0.8,0.5-1.4
		s0.2-1.4,0.2-2.3c0-0.9-0.1-1.7-0.2-2.3s-0.3-1.1-0.5-1.4s-0.6-0.6-1-0.7s-0.9-0.2-1.5-0.2H219v9.2H220.7z"/>
	<path class="st0" d="M228.9,20.2h9.1V23h-6.1v3h5.8v2.8h-5.8v3.4h6.1V35h-9.2V20.2z"/>
	<path class="st0" d="M244.7,35.2c-1.2,0-2.3-0.1-3.2-0.3s-1.7-0.6-2.4-1l1.6-2.4c0.2,0.1,0.4,0.3,0.7,0.4s0.6,0.2,0.9,0.3
		s0.7,0.2,1.1,0.2s0.8,0.1,1.2,0.1c0.4,0,0.8,0,1.1-0.1s0.5-0.2,0.7-0.3s0.3-0.3,0.4-0.5s0.1-0.4,0.1-0.7c0-0.3,0-0.6-0.1-0.8
		s-0.3-0.4-0.5-0.5s-0.6-0.3-1-0.4s-0.9-0.3-1.5-0.5c-0.7-0.2-1.3-0.4-1.8-0.7s-0.9-0.6-1.3-0.9s-0.6-0.7-0.7-1.2s-0.2-1-0.2-1.6
		c0-0.7,0.1-1.4,0.3-1.9s0.6-1,1-1.4s1-0.6,1.6-0.8s1.4-0.3,2.2-0.3c0.5,0,1,0,1.4,0.1s0.8,0.1,1.2,0.2s0.7,0.2,1,0.3
		s0.6,0.2,0.9,0.4l-1.4,2.7c-0.4-0.2-0.8-0.3-1.3-0.5s-1.1-0.2-1.8-0.2c-0.8,0-1.3,0.1-1.6,0.3s-0.5,0.5-0.5,1c0,0.3,0,0.5,0.1,0.6
		s0.2,0.3,0.4,0.4s0.4,0.3,0.7,0.4s0.7,0.2,1.1,0.4c0.6,0.2,1.1,0.4,1.6,0.5s0.9,0.4,1.2,0.6s0.7,0.4,0.9,0.6s0.4,0.5,0.6,0.8
		s0.3,0.6,0.3,1s0.1,0.8,0.1,1.3c0,0.7-0.1,1.2-0.3,1.8s-0.5,1-0.9,1.3s-1,0.7-1.6,0.8S245.6,35.2,244.7,35.2z"/>
	<path class="st0" d="M251.9,20.2h9.1V23h-6.1v3h5.8v2.8h-5.8v3.4h6.1V35h-9.2V20.2z"/>
	<path class="st0" d="M268.2,30h-2v5h-3.1V20.2h5.7c0.9,0,1.6,0.1,2.3,0.3s1.1,0.5,1.5,0.9s0.7,0.9,0.8,1.5s0.3,1.3,0.3,2
		c0,0.5,0,1.1-0.1,1.5s-0.2,0.9-0.4,1.3s-0.5,0.8-0.8,1.1s-0.7,0.6-1.1,0.8l2.4,5.4h-3.3L268.2,30z M268.8,27.3c0.3,0,0.6,0,0.9-0.1
		s0.4-0.2,0.6-0.4s0.3-0.4,0.3-0.7s0.1-0.6,0.1-1s0-0.7-0.1-1s-0.2-0.5-0.3-0.7s-0.3-0.3-0.6-0.4s-0.5-0.1-0.9-0.1h-2.5v4.4H268.8z"
		/>
	<path class="st0" d="M274.8,20.2h3.2l3.1,10.4l3-10.4h3.2l-4.6,14.9h-3.4L274.8,20.2z"/>
	<path class="st0" d="M288.8,20.2h9.1V23h-6.1v3h5.8v2.8h-5.8v3.4h6.1V35h-9.2V20.2z"/>
</g>
</svg>
