<?xml version="1.0" encoding="utf-8"?>
<!-- Generator: Adobe Illustrator 23.1.0, SVG Export Plug-In . SVG Version: 6.00 Build 0)  -->
<svg version="1.1" id="Layer_1" xmlns="http://www.w3.org/2000/svg" xmlns:xlink="http://www.w3.org/1999/xlink" x="0px" y="0px"
	 viewBox="0 0 257 53.6" style="enable-background:new 0 0 257 53.6;" xml:space="preserve">
<style type="text/css">
	.st0{fill:#FFFFFF;}
</style>
<g>
	<path class="st0" d="M1.1,17.3l4.7-5c0.7-0.7,1.2-1.3,1.6-1.8C7.8,10,8.1,9.6,8.3,9.2c0.2-0.4,0.3-0.7,0.4-1
		c0.1-0.3,0.1-0.7,0.1-1.1c0-0.3,0-0.6-0.1-0.9C8.6,6,8.5,5.8,8.3,5.6C8.1,5.4,7.9,5.3,7.5,5.2C7.2,5.2,6.9,5.1,6.4,5.1
		c-0.3,0-0.7,0-1,0.1c-0.3,0-0.7,0.1-1,0.2C4.1,5.5,3.8,5.6,3.5,5.7C3.3,5.8,3,5.9,2.7,6L1.1,2.8c0.3-0.2,0.7-0.3,1.1-0.5
		C2.6,2.2,3.1,2,3.6,1.9c0.5-0.1,1-0.2,1.6-0.3c0.6-0.1,1.2-0.1,1.9-0.1c1,0,1.8,0.1,2.5,0.3c0.7,0.2,1.3,0.5,1.7,1
		c0.4,0.4,0.8,0.9,1,1.6c0.2,0.6,0.3,1.3,0.3,2.2c0,0.5,0,0.9-0.1,1.3c0,0.4-0.1,0.8-0.2,1.2c-0.1,0.4-0.3,0.7-0.5,1.1
		c-0.2,0.4-0.5,0.8-0.8,1.2c-0.3,0.4-0.7,0.9-1.1,1.4c-0.4,0.5-0.9,1-1.5,1.7L6.1,17h6.8v3.3H1.1V17.3z"/>
	<path class="st0" d="M22.3,20.5c-1,0-1.9-0.1-2.6-0.3c-0.7-0.2-1.3-0.5-1.8-0.8C17.4,19,17,18.5,16.7,18c-0.3-0.5-0.6-1.2-0.7-1.9
		c-0.2-0.7-0.3-1.5-0.3-2.3c-0.1-0.9-0.1-1.8-0.1-2.8c0-1,0-1.9,0.1-2.7c0.1-0.8,0.2-1.6,0.3-2.3c0.2-0.7,0.4-1.3,0.7-1.9
		c0.3-0.5,0.7-1,1.2-1.4C18.4,2.3,19,2,19.7,1.8c0.7-0.2,1.6-0.3,2.6-0.3c1,0,1.9,0.1,2.6,0.3c0.7,0.2,1.3,0.5,1.8,0.9
		c0.5,0.4,0.9,0.9,1.2,1.4c0.3,0.6,0.5,1.2,0.7,1.9C28.8,6.7,29,7.5,29,8.3c0.1,0.8,0.1,1.7,0.1,2.7c0,1,0,1.9-0.1,2.8
		c-0.1,0.9-0.2,1.6-0.3,2.3c-0.2,0.7-0.4,1.3-0.7,1.9c-0.3,0.5-0.7,1-1.2,1.4c-0.5,0.4-1.1,0.6-1.8,0.8
		C24.2,20.4,23.3,20.5,22.3,20.5z M22.3,17c0.6,0,1.1-0.1,1.5-0.3c0.4-0.2,0.7-0.6,0.9-1.1c0.2-0.5,0.3-1.1,0.4-1.9
		c0.1-0.8,0.1-1.7,0.1-2.7c0-1.1,0-2-0.1-2.7C25,7.6,24.9,7,24.7,6.5c-0.2-0.5-0.5-0.8-0.9-1c-0.4-0.2-0.9-0.3-1.5-0.3
		c-0.6,0-1.1,0.1-1.5,0.3c-0.4,0.2-0.7,0.6-0.9,1c-0.2,0.5-0.4,1.1-0.4,1.8c-0.1,0.7-0.1,1.6-0.1,2.7c0,1.1,0,2,0.1,2.7
		c0.1,0.8,0.2,1.4,0.4,1.9c0.2,0.5,0.5,0.8,0.9,1.1C21.2,16.9,21.7,17,22.3,17z"/>
	<path class="st0" d="M31.2,17.3l4.7-5c0.7-0.7,1.2-1.3,1.6-1.8c0.4-0.5,0.7-0.9,0.9-1.3c0.2-0.4,0.3-0.7,0.4-1
		c0.1-0.3,0.1-0.7,0.1-1.1c0-0.3,0-0.6-0.1-0.9c-0.1-0.2-0.2-0.5-0.4-0.6c-0.2-0.2-0.4-0.3-0.7-0.4c-0.3-0.1-0.7-0.1-1.1-0.1
		c-0.3,0-0.7,0-1,0.1c-0.3,0-0.7,0.1-1,0.2c-0.3,0.1-0.6,0.2-0.9,0.3C33.3,5.8,33,5.9,32.8,6l-1.6-3.2c0.3-0.2,0.7-0.3,1.1-0.5
		c0.4-0.2,0.8-0.3,1.3-0.4c0.5-0.1,1-0.2,1.6-0.3c0.6-0.1,1.2-0.1,1.9-0.1c1,0,1.8,0.1,2.5,0.3c0.7,0.2,1.3,0.5,1.7,1
		c0.4,0.4,0.8,0.9,1,1.6c0.2,0.6,0.3,1.3,0.3,2.2c0,0.5,0,0.9-0.1,1.3c0,0.4-0.1,0.8-0.2,1.2c-0.1,0.4-0.3,0.7-0.5,1.1
		c-0.2,0.4-0.5,0.8-0.8,1.2c-0.3,0.4-0.7,0.9-1.1,1.4c-0.4,0.5-0.9,1-1.5,1.7L36.1,17h6.8v3.3H31.2V17.3z"/>
	<path class="st0" d="M52.4,20.5c-1,0-1.9-0.1-2.6-0.3c-0.7-0.2-1.3-0.5-1.8-0.8C47.4,19,47,18.5,46.7,18c-0.3-0.5-0.6-1.2-0.7-1.9
		c-0.2-0.7-0.3-1.5-0.3-2.3c-0.1-0.9-0.1-1.8-0.1-2.8c0-1,0-1.9,0.1-2.7C45.7,7.4,45.8,6.7,46,6c0.2-0.7,0.4-1.3,0.7-1.9
		c0.3-0.5,0.7-1,1.2-1.4C48.4,2.3,49,2,49.8,1.8c0.7-0.2,1.6-0.3,2.6-0.3c1,0,1.9,0.1,2.6,0.3c0.7,0.2,1.3,0.5,1.8,0.9
		c0.5,0.4,0.9,0.9,1.2,1.4c0.3,0.6,0.5,1.2,0.7,1.9C58.9,6.7,59,7.5,59,8.3c0.1,0.8,0.1,1.7,0.1,2.7c0,1,0,1.9-0.1,2.8
		c-0.1,0.9-0.2,1.6-0.3,2.3c-0.2,0.7-0.4,1.3-0.7,1.9c-0.3,0.5-0.7,1-1.2,1.4c-0.5,0.4-1.1,0.6-1.8,0.8
		C54.2,20.4,53.4,20.5,52.4,20.5z M52.4,17c0.6,0,1.1-0.1,1.5-0.3c0.4-0.2,0.7-0.6,0.9-1.1c0.2-0.5,0.3-1.1,0.4-1.9
		c0.1-0.8,0.1-1.7,0.1-2.7c0-1.1,0-2-0.1-2.7c-0.1-0.7-0.2-1.3-0.4-1.8c-0.2-0.5-0.5-0.8-0.9-1c-0.4-0.2-0.9-0.3-1.5-0.3
		c-0.6,0-1.1,0.1-1.5,0.3c-0.4,0.2-0.7,0.6-0.9,1c-0.2,0.5-0.4,1.1-0.4,1.8c-0.1,0.7-0.1,1.6-0.1,2.7c0,1.1,0,2,0.1,2.7
		c0.1,0.8,0.2,1.4,0.4,1.9c0.2,0.5,0.5,0.8,0.9,1.1C51.3,16.9,51.8,17,52.4,17z"/>
	<path class="st0" d="M66.6,1.7H78v3.6h-7.5v4h7.2v3.6h-7.2v7.4h-3.9V1.7z"/>
	<path class="st0" d="M87.2,20.5c-1.1,0-2.1-0.1-2.9-0.4c-0.8-0.2-1.5-0.6-2.1-1c-0.6-0.4-1-0.9-1.4-1.5c-0.4-0.6-0.6-1.2-0.8-1.9
		c-0.2-0.7-0.3-1.5-0.4-2.2c-0.1-0.8-0.1-1.6-0.1-2.4c0-0.8,0-1.7,0.1-2.5C79.7,7.8,79.8,7,80,6.3c0.2-0.7,0.5-1.3,0.8-1.9
		c0.4-0.6,0.8-1.1,1.4-1.5c0.6-0.4,1.3-0.8,2.1-1c0.8-0.2,1.8-0.4,2.9-0.4c1.1,0,2.1,0.1,2.9,0.4c0.8,0.2,1.5,0.6,2.1,1
		c0.6,0.4,1,0.9,1.4,1.5c0.4,0.6,0.6,1.2,0.8,1.9c0.2,0.7,0.3,1.5,0.4,2.3c0.1,0.8,0.1,1.6,0.1,2.5c0,0.8,0,1.7-0.1,2.4
		c-0.1,0.8-0.2,1.5-0.4,2.2c-0.2,0.7-0.5,1.3-0.8,1.9c-0.4,0.6-0.8,1.1-1.4,1.5c-0.6,0.4-1.3,0.8-2.1,1
		C89.2,20.4,88.3,20.5,87.2,20.5z M87.2,17c0.8,0,1.5-0.1,2-0.4c0.5-0.3,0.9-0.7,1.1-1.2c0.3-0.5,0.4-1.1,0.5-1.9
		c0.1-0.7,0.1-1.5,0.1-2.4c0-0.9,0-1.7-0.1-2.4c-0.1-0.7-0.2-1.3-0.5-1.8C90,6.4,89.6,6,89.1,5.7c-0.5-0.3-1.1-0.4-2-0.4
		c-0.8,0-1.5,0.1-2,0.4c-0.5,0.3-0.9,0.7-1.1,1.2c-0.3,0.5-0.4,1.1-0.5,1.8c-0.1,0.7-0.1,1.5-0.1,2.4c0,0.9,0,1.7,0.1,2.4
		c0.1,0.7,0.2,1.3,0.5,1.9c0.3,0.5,0.6,0.9,1.1,1.2C85.7,16.9,86.3,17,87.2,17z"/>
	<path class="st0" d="M103.5,14.1h-2.5v6.2h-3.8V1.7h7.1c1.1,0,2.1,0.1,2.8,0.4c0.8,0.3,1.4,0.6,1.9,1.2c0.5,0.5,0.8,1.1,1.1,1.9
		s0.3,1.6,0.3,2.5c0,0.7-0.1,1.3-0.2,1.9c-0.1,0.6-0.3,1.2-0.5,1.7c-0.2,0.5-0.6,1-1,1.3c-0.4,0.4-0.9,0.7-1.4,0.9l3,6.8h-4.1
		L103.5,14.1z M104.2,10.7c0.4,0,0.8,0,1.1-0.1c0.3-0.1,0.5-0.3,0.7-0.5c0.2-0.2,0.3-0.5,0.4-0.8c0.1-0.3,0.1-0.8,0.1-1.3
		c0-0.5,0-0.9-0.1-1.3c-0.1-0.3-0.2-0.6-0.4-0.8c-0.2-0.2-0.4-0.4-0.7-0.5c-0.3-0.1-0.7-0.1-1.1-0.1h-3.1v5.5H104.2z"/>
	<path class="st0" d="M113.1,1.7h5.8c1.5,0,2.7,0.2,3.7,0.5c1,0.3,1.9,0.8,2.5,1.5c0.7,0.7,1.1,1.7,1.4,2.9c0.3,1.2,0.4,2.7,0.4,4.4
		c0,1.8-0.1,3.3-0.4,4.5c-0.3,1.2-0.8,2.1-1.4,2.9c-0.7,0.7-1.5,1.2-2.5,1.5c-1,0.3-2.3,0.4-3.8,0.4h-5.8V1.7z M119.2,16.9
		c0.7,0,1.3-0.1,1.7-0.2c0.5-0.2,0.9-0.5,1.2-0.9c0.3-0.4,0.5-1,0.7-1.8c0.1-0.8,0.2-1.7,0.2-2.9c0-1.2-0.1-2.1-0.2-2.9
		c-0.1-0.7-0.4-1.3-0.7-1.7c-0.3-0.4-0.7-0.7-1.2-0.9c-0.5-0.2-1.1-0.2-1.8-0.2H117v11.5H119.2z"/>
	<path class="st0" d="M133.9,1.7h11.4v3.6h-7.6V9h7.3v3.6h-7.3v4.2h7.6v3.5h-11.5V1.7z"/>
	<path class="st0" d="M154.4,20.5c-1.4,0-2.7-0.2-3.6-0.7c-1-0.4-1.7-1.1-2.3-1.9c-0.6-0.8-1-1.8-1.2-3c-0.2-1.2-0.3-2.5-0.3-3.9
		c0-0.9,0-1.8,0.1-2.7c0.1-0.8,0.2-1.6,0.5-2.3c0.2-0.7,0.5-1.3,0.9-1.9c0.4-0.6,0.8-1,1.4-1.4c0.6-0.4,1.3-0.7,2-0.9
		c0.8-0.2,1.7-0.3,2.8-0.3c1,0,1.9,0.1,2.8,0.3c0.9,0.2,1.6,0.6,2.3,1l-2.1,3.2c-0.4-0.2-0.8-0.4-1.3-0.6c-0.5-0.1-1.1-0.2-1.7-0.2
		c-0.6,0-1.2,0.1-1.7,0.3c-0.5,0.2-0.8,0.5-1.1,0.9s-0.5,1-0.6,1.8C151.1,9,151,10,151,11.1c0,1.1,0.1,2.1,0.2,2.8
		c0.1,0.7,0.3,1.3,0.6,1.8c0.3,0.5,0.7,0.8,1.1,1c0.5,0.2,1,0.3,1.7,0.3c0.3,0,0.6,0,0.9-0.1c0.3,0,0.6-0.1,0.8-0.2
		c0.3-0.1,0.5-0.2,0.8-0.3c0.3-0.1,0.5-0.3,0.8-0.4l1.9,3c-0.4,0.2-0.7,0.4-1.1,0.6c-0.4,0.2-0.8,0.3-1.2,0.5
		c-0.4,0.1-0.9,0.2-1.4,0.3C155.6,20.5,155.1,20.5,154.4,20.5z"/>
	<path class="st0" d="M168.5,20.5c-1.1,0-2.1-0.1-2.9-0.4c-0.8-0.2-1.5-0.6-2.1-1c-0.6-0.4-1-0.9-1.4-1.5c-0.4-0.6-0.6-1.2-0.8-1.9
		c-0.2-0.7-0.3-1.5-0.4-2.2c-0.1-0.8-0.1-1.6-0.1-2.4c0-0.8,0-1.7,0.1-2.5c0.1-0.8,0.2-1.5,0.4-2.3c0.2-0.7,0.5-1.3,0.8-1.9
		c0.4-0.6,0.8-1.1,1.4-1.5c0.6-0.4,1.3-0.8,2.1-1c0.8-0.2,1.8-0.4,2.9-0.4c1.1,0,2.1,0.1,2.9,0.4c0.8,0.2,1.5,0.6,2.1,1
		c0.6,0.4,1,0.9,1.4,1.5c0.4,0.6,0.6,1.2,0.8,1.9c0.2,0.7,0.3,1.5,0.4,2.3c0.1,0.8,0.1,1.6,0.1,2.5c0,0.8,0,1.7-0.1,2.4
		c-0.1,0.8-0.2,1.5-0.4,2.2c-0.2,0.7-0.5,1.3-0.8,1.9c-0.4,0.6-0.8,1.1-1.4,1.5c-0.6,0.4-1.3,0.8-2.1,1
		C170.5,20.4,169.6,20.5,168.5,20.5z M168.5,17c0.8,0,1.5-0.1,2-0.4c0.5-0.3,0.9-0.7,1.1-1.2c0.3-0.5,0.4-1.1,0.5-1.9
		c0.1-0.7,0.1-1.5,0.1-2.4c0-0.9,0-1.7-0.1-2.4c-0.1-0.7-0.2-1.3-0.5-1.8c-0.3-0.5-0.6-0.9-1.1-1.2c-0.5-0.3-1.1-0.4-2-0.4
		c-0.8,0-1.5,0.1-2,0.4c-0.5,0.3-0.9,0.7-1.1,1.2c-0.3,0.5-0.4,1.1-0.5,1.8c-0.1,0.7-0.1,1.5-0.1,2.4c0,0.9,0,1.7,0.1,2.4
		c0.1,0.7,0.2,1.3,0.5,1.9c0.3,0.5,0.6,0.9,1.1,1.2C167,16.9,167.6,17,168.5,17z"/>
	<path class="st0" d="M183.9,20.5c-1.5,0-2.9-0.1-4-0.4c-1.1-0.3-2.1-0.7-3-1.3l2-3c0.3,0.2,0.6,0.3,0.9,0.5
		c0.3,0.2,0.7,0.3,1.1,0.4c0.4,0.1,0.9,0.2,1.3,0.3c0.5,0.1,1,0.1,1.5,0.1c0.5,0,1,0,1.3-0.1c0.4-0.1,0.7-0.2,0.9-0.4
		c0.2-0.2,0.4-0.4,0.5-0.6c0.1-0.2,0.1-0.5,0.1-0.8c0-0.4-0.1-0.7-0.2-1c-0.1-0.3-0.3-0.5-0.6-0.7c-0.3-0.2-0.7-0.4-1.2-0.5
		c-0.5-0.2-1.1-0.4-1.9-0.6c-0.9-0.3-1.6-0.5-2.2-0.9c-0.6-0.3-1.2-0.7-1.6-1.1c-0.4-0.4-0.7-0.9-0.9-1.5c-0.2-0.6-0.3-1.2-0.3-2
		c0-0.9,0.1-1.7,0.4-2.4c0.3-0.7,0.7-1.2,1.2-1.7c0.5-0.5,1.2-0.8,2-1c0.8-0.2,1.7-0.3,2.7-0.3c0.6,0,1.2,0,1.8,0.1
		c0.5,0.1,1,0.1,1.5,0.2c0.5,0.1,0.9,0.2,1.3,0.4c0.4,0.1,0.8,0.3,1.1,0.5L188.1,6c-0.4-0.2-1-0.4-1.6-0.6c-0.6-0.2-1.4-0.3-2.3-0.3
		c-0.9,0-1.6,0.1-2,0.4c-0.4,0.3-0.6,0.7-0.6,1.3c0,0.3,0,0.6,0.1,0.8c0.1,0.2,0.3,0.4,0.5,0.6c0.2,0.2,0.5,0.3,0.9,0.5
		c0.4,0.1,0.8,0.3,1.4,0.5c0.7,0.2,1.4,0.5,2,0.7c0.6,0.2,1.1,0.5,1.5,0.7s0.8,0.5,1.1,0.8c0.3,0.3,0.6,0.6,0.8,1
		c0.2,0.4,0.3,0.8,0.4,1.3c0.1,0.5,0.1,1,0.1,1.6c0,0.8-0.1,1.6-0.4,2.2c-0.3,0.7-0.7,1.2-1.2,1.7c-0.5,0.5-1.2,0.8-2,1.1
		C186,20.4,185,20.5,183.9,20.5z"/>
	<path class="st0" d="M192.9,1.7h7.1c1.1,0,2.1,0.1,2.8,0.4c0.8,0.3,1.4,0.7,1.9,1.2c0.5,0.5,0.8,1.2,1.1,1.9
		c0.2,0.7,0.3,1.6,0.3,2.5c0,0.9-0.1,1.8-0.3,2.6c-0.2,0.8-0.6,1.5-1.1,2c-0.5,0.6-1.1,1-1.9,1.3c-0.8,0.3-1.7,0.5-2.9,0.5h-3.2v6.1
		h-3.8V1.7z M199.8,10.8c0.8,0,1.5-0.2,1.8-0.7c0.4-0.4,0.6-1.2,0.6-2.2c0-0.5,0-0.9-0.1-1.3c-0.1-0.4-0.2-0.6-0.4-0.9
		c-0.2-0.2-0.4-0.4-0.8-0.5c-0.3-0.1-0.7-0.2-1.1-0.2h-3.1v5.6H199.8z"/>
	<path class="st0" d="M215.3,20.5c-1.1,0-2.1-0.1-2.9-0.4c-0.8-0.2-1.5-0.6-2.1-1c-0.6-0.4-1-0.9-1.4-1.5c-0.4-0.6-0.6-1.2-0.8-1.9
		c-0.2-0.7-0.3-1.5-0.4-2.2c-0.1-0.8-0.1-1.6-0.1-2.4c0-0.8,0-1.7,0.1-2.5c0.1-0.8,0.2-1.5,0.4-2.3c0.2-0.7,0.5-1.3,0.8-1.9
		c0.4-0.6,0.8-1.1,1.4-1.5c0.6-0.4,1.3-0.8,2.1-1c0.8-0.2,1.8-0.4,2.9-0.4c1.1,0,2.1,0.1,2.9,0.4c0.8,0.2,1.5,0.6,2.1,1
		c0.6,0.4,1,0.9,1.4,1.5c0.4,0.6,0.6,1.2,0.8,1.9c0.2,0.7,0.3,1.5,0.4,2.3c0.1,0.8,0.1,1.6,0.1,2.5c0,0.8,0,1.7-0.1,2.4
		c-0.1,0.8-0.2,1.5-0.4,2.2c-0.2,0.7-0.5,1.3-0.8,1.9c-0.4,0.6-0.8,1.1-1.4,1.5c-0.6,0.4-1.3,0.8-2.1,1
		C217.4,20.4,216.4,20.5,215.3,20.5z M215.3,17c0.8,0,1.5-0.1,2-0.4c0.5-0.3,0.9-0.7,1.1-1.2c0.3-0.5,0.4-1.1,0.5-1.9
		c0.1-0.7,0.1-1.5,0.1-2.4c0-0.9,0-1.7-0.1-2.4c-0.1-0.7-0.2-1.3-0.5-1.8c-0.3-0.5-0.6-0.9-1.1-1.2c-0.5-0.3-1.1-0.4-2-0.4
		c-0.8,0-1.5,0.1-2,0.4c-0.5,0.3-0.9,0.7-1.1,1.2c-0.3,0.5-0.4,1.1-0.5,1.8c-0.1,0.7-0.1,1.5-0.1,2.4c0,0.9,0,1.7,0.1,2.4
		c0.1,0.7,0.2,1.3,0.5,1.9c0.3,0.5,0.6,0.9,1.1,1.2C213.8,16.9,214.5,17,215.3,17z"/>
	<path class="st0" d="M231.7,14.1h-2.5v6.2h-3.8V1.7h7.1c1.1,0,2.1,0.1,2.8,0.4c0.8,0.3,1.4,0.6,1.9,1.2c0.5,0.5,0.8,1.1,1.1,1.9
		s0.3,1.6,0.3,2.5c0,0.7-0.1,1.3-0.2,1.9c-0.1,0.6-0.3,1.2-0.5,1.7c-0.2,0.5-0.6,1-1,1.3c-0.4,0.4-0.9,0.7-1.4,0.9l3,6.8h-4.1
		L231.7,14.1z M232.3,10.7c0.4,0,0.8,0,1.1-0.1c0.3-0.1,0.5-0.3,0.7-0.5c0.2-0.2,0.3-0.5,0.4-0.8c0.1-0.3,0.1-0.8,0.1-1.3
		c0-0.5,0-0.9-0.1-1.3c-0.1-0.3-0.2-0.6-0.4-0.8c-0.2-0.2-0.4-0.4-0.7-0.5c-0.3-0.1-0.7-0.1-1.1-0.1h-3.1v5.5H232.3z"/>
	<path class="st0" d="M244.7,5.3h-5V1.7h13.9v3.6h-5v15h-4V5.3z"/>
	<path class="st0" d="M62.3,50.5c-1.4,0-2.7-0.2-3.6-0.7c-1-0.4-1.7-1.1-2.3-1.9c-0.6-0.8-1-1.8-1.2-3c-0.2-1.2-0.3-2.5-0.3-3.9
		c0-0.9,0-1.8,0.1-2.7c0.1-0.8,0.2-1.6,0.5-2.3c0.2-0.7,0.5-1.3,0.9-1.9c0.4-0.6,0.8-1,1.4-1.4c0.6-0.4,1.3-0.7,2-0.9
		c0.8-0.2,1.7-0.3,2.8-0.3c1,0,1.9,0.1,2.8,0.3c0.9,0.2,1.6,0.6,2.3,1l-2.1,3.2c-0.4-0.2-0.8-0.4-1.3-0.6c-0.5-0.1-1.1-0.2-1.7-0.2
		c-0.6,0-1.2,0.1-1.7,0.3c-0.5,0.2-0.8,0.5-1.1,0.9s-0.5,1-0.6,1.8c-0.1,0.7-0.2,1.7-0.2,2.8c0,1.1,0.1,2.1,0.2,2.8
		c0.1,0.7,0.3,1.3,0.6,1.8c0.3,0.5,0.7,0.8,1.1,1c0.5,0.2,1,0.3,1.7,0.3c0.3,0,0.6,0,0.9-0.1c0.3,0,0.6-0.1,0.8-0.2
		c0.3-0.1,0.5-0.2,0.8-0.3c0.3-0.1,0.5-0.3,0.8-0.4l1.9,3c-0.4,0.2-0.7,0.4-1.1,0.6c-0.4,0.2-0.8,0.3-1.2,0.5
		c-0.4,0.1-0.9,0.2-1.4,0.3C63.4,50.5,62.9,50.5,62.3,50.5z"/>
	<path class="st0" d="M76.3,50.5c-1.1,0-2.1-0.1-2.9-0.4c-0.8-0.2-1.5-0.6-2.1-1c-0.6-0.4-1-0.9-1.4-1.5c-0.4-0.6-0.6-1.2-0.8-1.9
		c-0.2-0.7-0.3-1.5-0.4-2.2c-0.1-0.8-0.1-1.6-0.1-2.4c0-0.8,0-1.7,0.1-2.5c0.1-0.8,0.2-1.5,0.4-2.3c0.2-0.7,0.5-1.3,0.8-1.9
		c0.4-0.6,0.8-1.1,1.4-1.5c0.6-0.4,1.3-0.8,2.1-1c0.8-0.2,1.8-0.4,2.9-0.4c1.1,0,2.1,0.1,2.9,0.4c0.8,0.2,1.5,0.6,2.1,1
		c0.6,0.4,1,0.9,1.4,1.5c0.4,0.6,0.6,1.2,0.8,1.9c0.2,0.7,0.3,1.5,0.4,2.3c0.1,0.8,0.1,1.6,0.1,2.5c0,0.8,0,1.7-0.1,2.4
		c-0.1,0.8-0.2,1.5-0.4,2.2c-0.2,0.7-0.5,1.3-0.8,1.9c-0.4,0.6-0.8,1.1-1.4,1.5c-0.6,0.4-1.3,0.8-2.1,1
		C78.4,50.4,77.4,50.5,76.3,50.5z M76.3,47c0.8,0,1.5-0.1,2-0.4c0.5-0.3,0.9-0.7,1.1-1.2c0.3-0.5,0.4-1.1,0.5-1.9
		c0.1-0.7,0.1-1.5,0.1-2.4c0-0.9,0-1.7-0.1-2.4c-0.1-0.7-0.2-1.3-0.5-1.8c-0.3-0.5-0.6-0.9-1.1-1.2c-0.5-0.3-1.1-0.4-2-0.4
		c-0.8,0-1.5,0.1-2,0.4c-0.5,0.3-0.9,0.7-1.1,1.2c-0.3,0.5-0.4,1.1-0.5,1.8c-0.1,0.7-0.1,1.5-0.1,2.4c0,0.9,0,1.7,0.1,2.4
		c0.1,0.7,0.2,1.3,0.5,1.9c0.3,0.5,0.6,0.9,1.1,1.2C74.8,46.9,75.5,47,76.3,47z"/>
	<path class="st0" d="M86.3,31.7h5l3.6,11.8l3.6-11.8h5v18.5h-3.8V38.4l-3.7,11.8h-2.5l-3.7-11.8v11.8h-3.5V31.7z"/>
	<path class="st0" d="M106.7,31.7h11.4v3.6h-7.6V39h7.3v3.6h-7.3v4.2h7.6v3.5h-11.5V31.7z"/>
	<path class="st0" d="M126.5,50.5c-1.5,0-2.9-0.1-4-0.4c-1.1-0.3-2.1-0.7-3-1.3l2-3c0.3,0.2,0.6,0.3,0.9,0.5
		c0.3,0.2,0.7,0.3,1.1,0.4c0.4,0.1,0.9,0.2,1.3,0.3c0.5,0.1,1,0.1,1.5,0.1c0.5,0,1,0,1.3-0.1c0.4-0.1,0.7-0.2,0.9-0.4
		c0.2-0.2,0.4-0.4,0.5-0.6c0.1-0.2,0.1-0.5,0.1-0.8c0-0.4-0.1-0.7-0.2-1c-0.1-0.3-0.3-0.5-0.6-0.7c-0.3-0.2-0.7-0.4-1.2-0.5
		c-0.5-0.2-1.1-0.4-1.9-0.6c-0.9-0.3-1.6-0.5-2.2-0.9c-0.6-0.3-1.2-0.7-1.6-1.1c-0.4-0.4-0.7-0.9-0.9-1.5c-0.2-0.6-0.3-1.2-0.3-2
		c0-0.9,0.1-1.7,0.4-2.4c0.3-0.7,0.7-1.2,1.2-1.7c0.5-0.5,1.2-0.8,2-1c0.8-0.2,1.7-0.3,2.7-0.3c0.6,0,1.2,0,1.8,0.1
		c0.5,0.1,1,0.1,1.5,0.2c0.5,0.1,0.9,0.2,1.3,0.4c0.4,0.1,0.8,0.3,1.1,0.5l-1.7,3.4c-0.4-0.2-1-0.4-1.6-0.6
		c-0.6-0.2-1.4-0.3-2.3-0.3c-0.9,0-1.6,0.1-2,0.4c-0.4,0.3-0.6,0.7-0.6,1.3c0,0.3,0,0.6,0.1,0.8c0.1,0.2,0.3,0.4,0.5,0.6
		c0.2,0.2,0.5,0.3,0.9,0.5c0.4,0.1,0.8,0.3,1.4,0.5c0.7,0.2,1.4,0.5,2,0.7c0.6,0.2,1.1,0.5,1.5,0.7s0.8,0.5,1.1,0.8
		c0.3,0.3,0.6,0.6,0.8,1c0.2,0.4,0.3,0.8,0.4,1.3c0.1,0.5,0.1,1,0.1,1.6c0,0.8-0.1,1.6-0.4,2.2c-0.3,0.7-0.7,1.2-1.2,1.7
		c-0.5,0.5-1.2,0.8-2,1.1C128.6,50.4,127.6,50.5,126.5,50.5z"/>
	<path class="st0" d="M139,31.7h4l2.4,11.3l2.7-11.3h3.5l2.7,11.3l2.4-11.3h3.7l-4.1,18.7h-3.8l-2.7-11l-2.7,11h-3.9L139,31.7z"/>
	<path class="st0" d="M162.9,31.7h3.9v18.5h-3.9V31.7z"/>
	<path class="st0" d="M173.9,35.3h-5v-3.6h13.9v3.6h-5v15h-4V35.3z"/>
	<path class="st0" d="M184.9,31.7h3.9v7h6.2v-7h4v18.5h-4v-7.6h-6.2v7.6h-3.9V31.7z"/>
</g>
</svg>
