<?xml version="1.0" encoding="utf-8"?>
<!-- Generator: Adobe Illustrator 20.0.0, SVG Export Plug-In . SVG Version: 6.00 Build 0)  -->
<svg version="1.1" id="Layer_1" xmlns="http://www.w3.org/2000/svg" xmlns:xlink="http://www.w3.org/1999/xlink" x="0px" y="0px"
	 viewBox="0 0 180.089 102.983" enable-background="new 0 0 180.089 102.983" xml:space="preserve">
<g>
	<g>
		<path fill="#005A9C" d="M90.044,0C40.064,0,0,14.981,0,33.764c0,18.669,40.394,33.765,90.044,33.765
			c49.651,0,90.045-15.147,90.045-33.765C180.089,15.146,139.695,0,90.044,0z"/>
	</g>
	<path fill="#FFFFFF" d="M142.944,24.078c0.117-0.206-0.006-0.357-0.266-0.357c-1.357,0-3.137,0.003-4.55,0.003
		c-0.337,0-0.511,0.041-0.67,0.354c-0.521,1-6.881,10.53-8.065,12.381c-0.199,0.282-0.443,0.243-0.471-0.078
		c-0.12-1.099-1.069-2.362-2.565-2.967c-1.14-0.463-2.254-0.546-3.413-0.393c-2.091,0.281-3.955,1.385-5.593,2.629
		c-2.469,1.878-4.599,4.31-7.349,6.108c-1.502,0.978-3.557,1.832-4.933,0.558c-1.245-1.154-1.105-3.718,0.8-5.701
		c0.201-0.208,0.442-0.034,0.404,0.153c-0.18,0.897,0.042,1.788,0.722,2.414c0.831,0.744,2.02,0.829,3.038,0.332
		c1.201-0.595,1.907-1.745,2.113-3.049c0.319-2.024-1.239-3.808-3.188-3.951c-1.583-0.111-3.101,0.44-4.581,1.661
		c-0.741,0.615-1.163,1.07-1.804,1.982c-0.156,0.224-0.396,0.247-0.389-0.084c0.075-2.591-0.998-4.049-3.14-4.096
		c-1.662-0.039-3.438,0.862-4.823,1.966c-1.517,1.219-2.844,2.834-4.266,4.351c-0.177,0.187-0.332,0.178-0.381-0.184
		c-0.043-1.716-0.474-3.379-1.269-4.56c-0.281-0.411-0.872-0.614-1.369-0.336c-0.23,0.126-1.029,0.493-1.61,0.961
		c-0.289,0.238-0.401,0.581-0.274,1.022c0.768,2.564,0.598,5.48-0.442,7.942c-0.955,2.255-2.812,4.29-4.994,4.978
		c-1.437,0.456-2.933,0.233-3.857-1.042c-1.27-1.759-0.757-4.818,1.136-7.358c1.671-2.236,4.088-3.657,6.498-4.572
		c0.284-0.109,0.342-0.291,0.262-0.532c-0.131-0.397-0.34-0.936-0.426-1.183c-0.221-0.588-0.84-0.684-1.596-0.601
		c-1.751,0.204-3.332,0.804-4.892,1.639c-4.087,2.188-6.136,6.424-7.034,8.69c-0.432,1.088-0.802,1.768-1.28,2.37
		c-0.644,0.81-1.453,1.547-2.932,2.846c-0.133,0.119-0.233,0.368-0.121,0.598c0.151,0.313,0.92,1.398,1.137,1.495
		c0.241,0.118,0.521-0.047,0.632-0.128c1.035-0.702,2.273-1.813,2.879-2.567c0.212-0.258,0.431-0.15,0.543,0.242
		c0.565,2.018,2.046,3.664,4.094,4.353c3.747,1.264,7.635-0.565,10.568-3.75c1.865-2.024,2.538-3.325,3.252-4.21
		c1.211-1.501,3.6-4.858,6.446-7.014c1.044-0.794,2.279-1.401,2.9-0.998c0.498,0.322,0.659,1.073-0.14,2.528
		c-2.901,5.298-7.17,11.522-7.953,13.032c-0.143,0.262-0.018,0.468,0.256,0.468c1.518-0.007,3.023-0.004,4.401-0.004
		c0.23-0.011,0.332-0.115,0.447-0.277c2.226-3.485,4.322-6.803,6.568-10.232c0.126-0.202,0.242-0.046,0.247,0.043
		c0.046,0.796,0.242,1.884,0.714,2.599c0.849,1.321,2.052,1.889,3.387,1.898c1.062,0.012,1.599-0.149,2.744-0.576
		c0.932-0.346,1.68-0.799,2.254-1.21c0.335-0.233,0.394,0.157,0.385,0.217c-0.515,2.767,0.121,6.045,2.871,7.404
		c3.291,1.622,6.906-0.658,8.987-2.717c0.203-0.198,0.422-0.178,0.443,0.25c0.044,0.786,0.399,1.719,1.05,2.372
		c1.743,1.749,5.261,1.056,8.791-1.676c2.267-1.749,4.638-4.221,6.781-6.839c0.079-0.101,0.139-0.264-0.015-0.429
		c-0.326-0.341-0.799-0.732-1.122-1.033c-0.148-0.125-0.364-0.089-0.489,0.005c-2.196,2.088-4.172,4.47-7.03,6.44
		c-0.964,0.672-2.499,1.215-3.189,0.282c-0.269-0.362-0.238-0.864,0.027-1.522C129.072,45.341,142.259,25.263,142.944,24.078z
		 M125.512,40.917c0.027,0.154,0.227,0.302,0.424,0.373c0.068,0.026,0.107,0.076,0.029,0.237c-0.561,1.202-1.077,1.895-1.779,2.939
		c-0.646,0.965-1.375,1.718-2.256,2.441c-1.33,1.101-3.177,2.299-4.704,1.494c-0.678-0.352-0.971-1.301-0.958-2.07
		c0.035-2.161,0.994-4.379,2.769-6.56c2.164-2.664,4.556-4.046,6.126-3.291c1.624,0.775,1.106,2.656,0.379,4.132
		C125.487,40.726,125.483,40.823,125.512,40.917z"/>
	<path fill="#FFFFFF" d="M47.285,52.346c-4.917,0.035-9.249-3.004-9.746-8.265c-0.276-2.915,0.548-5.513,2.197-7.654
		c1.464-1.907,3.94-3.492,6.037-3.879c0.682-0.125,1.599-0.045,1.978,0.406c0.595,0.692,0.423,1.451-0.17,1.755
		c-1.6,0.817-3.525,2.215-4.477,4.124c-0.773,1.558-0.929,3.437,0.251,5.225c1.975,2.982,7.479,3.064,12.597-1.691
		c1.267-1.163,2.402-2.281,3.554-3.606c2.254-2.577,3.004-3.517,6-7.673c0.036-0.048,0.046-0.111,0.03-0.142
		c-0.025-0.053-0.067-0.068-0.154-0.073c-2,0.055-3.744,0.652-5.439,1.919c-0.488,0.355-1.19,0.305-1.498-0.163
		c-0.342-0.529-0.097-1.22,0.467-1.609c2.726-1.897,5.705-2.24,8.747-2.754c-0.002,0,0.212,0.01,0.386-0.221
		c1.248-1.602,2.192-3.048,3.522-4.669c1.341-1.644,3.075-3.154,4.398-4.288c1.848-1.589,3.032-2.123,4.237-2.779
		c0.317-0.165-0.041-0.364-0.137-0.364c-6.724-1.263-13.713-2.899-20.391-0.426c-4.624,1.726-6.65,5.393-5.675,7.844
		c0.693,1.738,2.98,2.021,5.119,0.973c1.778-0.871,3.422-2.275,4.589-4.082c0.653-1.003,2.028-0.279,1.285,1.463
		c-1.954,4.593-5.687,8.236-10.235,8.389c-3.87,0.126-6.367-2.721-6.358-6.233c0.014-6.928,7.728-11.491,15.833-12.173
		c9.761-0.807,19.005,1.793,28.697,2.969c7.425,0.899,14.544,0.918,22.007-0.797c0.882-0.191,1.501,0.372,1.444,1.262
		c-0.073,1.288-1.07,2.529-3.529,3.87c-2.795,1.533-5.72,1.998-8.774,2.023c-7.386,0.061-14.266-2.817-21.386-4.364
		c0.01,0.311,0.09,0.684-0.171,0.88c-3.943,2.909-7.508,5.863-9.896,10.011c-0.081,0.096-0.037,0.187,0.102,0.178
		c2.073-0.11,3.937-0.164,5.873-0.318c0.338-0.028,0.35-0.112,0.321-0.36c-0.17-1.43,0.247-3.061,1.505-4.182
		c1.287-1.155,2.9-1.286,3.968-0.454c1.216,0.947,1.108,2.65,0.443,3.926c-0.677,1.296-1.793,1.988-2.866,2.325
		c0,0-0.224,0.049-0.192,0.253c0.043,0.327,1.503,1.137,1.629,1.352c0.12,0.205,0.059,0.523-0.164,0.767
		c-0.156,0.177-0.397,0.344-0.707,0.338c-0.251-0.005-0.404-0.092-0.723-0.265c-0.656-0.355-1.475-0.939-2.021-1.627
		c-0.187-0.233-0.281-0.238-0.746-0.213c-2.094,0.121-5.36,0.437-7.572,0.713c-0.536,0.067-0.615,0.167-0.725,0.352
		c-3.527,5.817-7.293,12.089-11.428,16.288C54.885,51.13,51.198,52.316,47.285,52.346z M80.897,26.501
		c0.056,0.299,0.172,0.356,0.307,0.331c0.672-0.134,1.408-0.688,1.842-1.328c0.397-0.581,0.583-1.419,0.19-1.755
		c-0.352-0.302-0.924-0.216-1.347,0.158C81.045,24.653,80.788,25.711,80.897,26.501L80.897,26.501"/>
	<path fill="#FFFFFF" d="M90.042,64.591c-47.654,0-86.284-13.797-86.284-30.816c0-17.022,38.63-30.816,86.284-30.816
		c47.65,0,86.278,13.795,86.278,30.816C176.32,50.795,137.692,64.591,90.042,64.591z M90.042,5.521
		c-45.98,0-83.25,12.706-83.25,28.253c0,15.549,37.27,28.256,83.25,28.256c45.98,0,83.247-12.707,83.247-28.256
		C173.289,18.227,136.022,5.521,90.042,5.521z"/>
	<g>
		<path fill="#005A9C" d="M31.562,94.433c0-5.999,3.133-8.551,8.729-8.551c3.357,0,5.394,0.985,6.715,2.35l-2.507,2.529
			c-0.851-0.806-1.947-1.522-4.23-1.522c-3.626,0-5.036,1.791-5.036,5.238c0,3.626,0.985,5.417,4.992,5.417
			c3.223,0,4.163-1.075,4.163-3.402v-0.358h-4.633V93.09h8.259v2.709c0,4.723-1.88,7.185-7.968,7.185
			C33.42,102.983,31.562,99.939,31.562,94.433z"/>
		<path fill="#005A9C" d="M49.47,96.38c0-4.253,1.858-6.603,6.625-6.603c4.768,0,6.603,2.35,6.603,6.603
			c0,4.252-1.836,6.603-6.603,6.603C51.328,102.983,49.47,100.633,49.47,96.38z M59.184,96.469c0-2.149-0.672-3.492-3.089-3.492
			c-2.44,0-3.089,1.343-3.089,3.492c0,2.149,0.649,3.514,3.089,3.514C58.513,99.984,59.184,98.618,59.184,96.469z"/>
		<path fill="#005A9C" d="M68.989,86.151h12.065v3.313H72.66v3.559h8.17v3.268h-8.17v6.446h-3.671V86.151z"/>
		<path fill="#005A9C" d="M82.868,96.828v-6.76h3.515v6.827c0,1.768,0.045,2.999,2.551,2.999c2.484,0,2.53-1.254,2.53-3.022v-6.804
			h3.447v6.737c0,4.342-1.164,6.133-5.999,6.133C84.076,102.938,82.868,101.17,82.868,96.828z"/>
		<path fill="#005A9C" d="M96.5,90.269l2.731-0.201l0.358,1.387c0.537-0.805,2.082-1.455,4.052-1.522v3.357
			c-2.977,0.023-3.626,1.186-3.626,3.178v6.267H96.5V90.269z"/>
		<path fill="#005A9C" d="M104.492,90.068h2.239l0.605-3.089l2.731-0.559v3.648h2.999v2.999h-2.999v5.215
			c0,0.985,0.134,1.522,1.634,1.522h1.365v2.932c-0.515,0.045-1.455,0.045-2.082,0.045c-3.425,0-4.41-1.164-4.41-3.984v-5.73h-2.082
			V90.068z"/>
		<path fill="#005A9C" d="M114.677,85.368h3.492v5.551c0.515-0.56,1.724-1.142,4.119-1.142c3.827,0,4.544,2.126,4.544,5.283v7.677
			h-3.492v-6.984c0-1.544-0.18-2.664-2.306-2.664c-2.439,0-2.842,1.142-2.842,2.82v6.827h-3.514V85.368z"/>
		<path fill="#005A9C" d="M128.331,96.38c0-3.537,1.164-6.603,6.581-6.603c5.573,0,5.753,3.716,5.64,7.946h-8.819
			c0.201,1.522,0.94,2.417,3.201,2.417c1.947,0,3.044-0.47,3.984-1.164l1.768,2.283c-1.634,1.231-3.245,1.723-5.752,1.723
			C129.45,102.983,128.331,99.984,128.331,96.38z M131.733,95.216h5.618c-0.089-1.455-0.38-2.507-2.551-2.507
			C132.629,92.709,131.912,93.672,131.733,95.216z"/>
		<path fill="#005A9C" d="M142.21,90.269l2.731-0.201l0.358,1.387c0.537-0.805,2.082-1.455,4.052-1.522v3.357
			c-2.977,0.023-3.626,1.186-3.626,3.178v6.267h-3.514V90.269z"/>
	</g>
</g>
</svg>
