<?xml version="1.0" encoding="utf-8"?>
<!-- Generator: Adobe Illustrator 22.0.1, SVG Export Plug-In . SVG Version: 6.00 Build 0)  -->
<svg version="1.1" id="Layer_1" xmlns="http://www.w3.org/2000/svg" xmlns:xlink="http://www.w3.org/1999/xlink" x="0px" y="0px"
	 viewBox="0 0 64.133 63.517" enable-background="new 0 0 64.133 63.517" xml:space="preserve">
<path fill="#FFFFFF" d="M49.818,19.437c-2.669,1.911-5.253,3.761-8.083,5.786c-0.427-0.97-0.796-1.598-0.987-2.276
	c-1.957-6.924-3.254-13.97-3.937-21.135c-0.139-1.457,0.352-1.902,1.762-1.797c7.488,0.56,14.923,1.47,22.233,3.239
	c0.548,0.133,1.065,0.394,2.009,0.752c-1.952,2.507-3.733,4.795-5.333,6.85c1.609,3.211,3.495,6.216,4.685,9.475
	c6.788,18.595-4.654,38.729-24.064,42.587C20.324,66.451,2.904,53.976,0.34,35.871C-1.766,20.996,6.089,8.029,18.936,1.674
	c1.863-0.921,2.04-0.889,2.894,0.985c0.879,1.931,1.583,3.942,2.366,5.917c0.4,1.01,0.076,1.636-0.865,2.211
	c-4.832,2.955-8.834,6.742-11.042,12.062C6.324,37.22,16.22,50.63,28.928,52.504c12.01,1.772,22.657-6.367,24.341-18.352
	c0.715-5.09-0.511-9.698-2.879-14.115c-0.075-0.139-0.162-0.276-0.265-0.395C50.058,19.565,49.952,19.523,49.818,19.437z"/>
</svg>
